<?xml version="1.0" encoding="UTF-8"?><svg id="Layer_1" xmlns="http://www.w3.org/2000/svg" viewBox="0 0 2694.5 2787.5"><defs><style>.cls-1{letter-spacing:.12em;}.cls-2{letter-spacing:.21em;}.cls-3{letter-spacing:.02em;}.cls-4{letter-spacing:.26em;}.cls-5{letter-spacing:.02em;}.cls-6{letter-spacing:-.09em;}.cls-7,.cls-8,.cls-9,.cls-10{fill:none;}.cls-7,.cls-8,.cls-10,.cls-11,.cls-12,.cls-13,.cls-14,.cls-15{stroke:#181818;}.cls-16{letter-spacing:.48em;}.cls-17{letter-spacing:.1em;}.cls-18{letter-spacing:.22em;}.cls-19{letter-spacing:.01em;}.cls-20{letter-spacing:.18em;}.cls-21{letter-spacing:.01em;}.cls-22{letter-spacing:.03em;}.cls-23{letter-spacing:-.07em;}.cls-24{letter-spacing:.41em;}.cls-8,.cls-12{stroke-width:.5px;}.cls-9{stroke-width:1.5px;}.cls-9,.cls-25{stroke:#000;}.cls-26{letter-spacing:.39em;}.cls-27{letter-spacing:.22em;}.cls-28{letter-spacing:.26em;}.cls-29{letter-spacing:.12em;}.cls-30{letter-spacing:.23em;}.cls-31{letter-spacing:.13em;}.cls-32{letter-spacing:.4em;}.cls-33{letter-spacing:.03em;}.cls-34{letter-spacing:0em;}.cls-35{font-family:Arial-ItalicMT, Arial;}.cls-35,.cls-36,.cls-37,.cls-38{isolation:isolate;}.cls-35,.cls-36,.cls-39,.cls-38{font-size:14px;}.cls-40{letter-spacing:.24em;}.cls-41{letter-spacing:.26em;}.cls-42{letter-spacing:.1em;}.cls-43{letter-spacing:.1em;}.cls-44{letter-spacing:.21em;}.cls-36,.cls-37,.cls-39{font-family:ArialMT, Arial;}.cls-45{letter-spacing:.24em;}.cls-46{letter-spacing:.02em;}.cls-47{letter-spacing:.16em;}.cls-48{letter-spacing:.02em;}.cls-49{letter-spacing:.07em;}.cls-50{letter-spacing:.28em;}.cls-51{letter-spacing:.02em;}.cls-52{letter-spacing:.05em;}.cls-53{letter-spacing:.32em;}.cls-54{letter-spacing:.03em;}.cls-55{letter-spacing:.08em;}.cls-56{letter-spacing:.08em;}.cls-57{letter-spacing:.02em;}.cls-58{letter-spacing:.22em;}.cls-10{stroke-dasharray:0 0 7 7;}.cls-59{letter-spacing:.23em;}.cls-60{letter-spacing:-.07em;}.cls-61{letter-spacing:.22em;}.cls-62{letter-spacing:0em;}.cls-63{letter-spacing:0em;}.cls-11{fill:#add1b2;}.cls-64{letter-spacing:.09em;}.cls-65{letter-spacing:.19em;}.cls-66{letter-spacing:.02em;}.cls-67{letter-spacing:0em;}.cls-68{letter-spacing:.2em;}.cls-69{letter-spacing:.21em;}.cls-70{letter-spacing:.21em;}.cls-71{letter-spacing:.13em;}.cls-72{letter-spacing:.11em;}.cls-73{letter-spacing:.39em;}.cls-74{letter-spacing:.2em;}.cls-12{fill:#f1f1f1;}.cls-75{letter-spacing:.17em;}.cls-76{letter-spacing:.03em;}.cls-77{letter-spacing:.03em;}.cls-78{letter-spacing:.16em;}.cls-79{letter-spacing:.32em;}.cls-80{letter-spacing:0em;}.cls-81{letter-spacing:.44em;}.cls-82{letter-spacing:.05em;}.cls-83{letter-spacing:.23em;}.cls-84{letter-spacing:.1em;}.cls-85{letter-spacing:0em;}.cls-86{letter-spacing:.15em;}.cls-87{letter-spacing:.16em;}.cls-88{letter-spacing:.33em;}.cls-89{letter-spacing:.1em;}.cls-90{letter-spacing:.24em;}.cls-91{letter-spacing:.19em;}.cls-92{letter-spacing:.22em;}.cls-93{letter-spacing:.25em;}.cls-94{letter-spacing:0em;}.cls-95{letter-spacing:.19em;}.cls-96{letter-spacing:.15em;}.cls-97{letter-spacing:0em;}.cls-98{letter-spacing:.35em;}.cls-99{letter-spacing:0em;}.cls-37{font-size:13px;}.cls-100{letter-spacing:.1em;}.cls-101{letter-spacing:.14em;}.cls-102{letter-spacing:.16em;}.cls-103{letter-spacing:-.05em;}.cls-104{letter-spacing:.25em;}.cls-105{letter-spacing:0em;}.cls-106{letter-spacing:.01em;}.cls-107{letter-spacing:.33em;}.cls-108{letter-spacing:.08em;}.cls-109{letter-spacing:.07em;}.cls-13{fill:#b4a7e5;}.cls-110{letter-spacing:.04em;}.cls-111{letter-spacing:-.11em;}.cls-112{letter-spacing:.03em;}.cls-113{letter-spacing:.37em;}.cls-114{letter-spacing:.21em;}.cls-115{letter-spacing:0em;}.cls-116{letter-spacing:.16em;}.cls-117{letter-spacing:.02em;}.cls-118{letter-spacing:.11em;}.cls-119{letter-spacing:.13em;}.cls-120{letter-spacing:.16em;}.cls-121{letter-spacing:0em;}.cls-122{letter-spacing:.24em;}.cls-123{letter-spacing:.27em;}.cls-124{letter-spacing:.03em;}.cls-125{letter-spacing:-.04em;}.cls-126{letter-spacing:.13em;}.cls-127{letter-spacing:.32em;}.cls-128{letter-spacing:0em;}.cls-129{letter-spacing:.21em;}.cls-39{text-decoration:underline;}.cls-130{letter-spacing:.13em;}.cls-131{letter-spacing:0em;}.cls-132{letter-spacing:.18em;}.cls-133{letter-spacing:.15em;}.cls-134{letter-spacing:0em;}.cls-135{letter-spacing:-.02em;}.cls-136{letter-spacing:0em;}.cls-137{letter-spacing:0em;}.cls-138{letter-spacing:.26em;}.cls-139{letter-spacing:.12em;}.cls-140{letter-spacing:.09em;}.cls-141{letter-spacing:.38em;}.cls-142{letter-spacing:.19em;}.cls-38{font-family:Arial-BoldMT, Arial;}.cls-143{letter-spacing:.02em;}.cls-14{fill:#eb937f;}.cls-144{letter-spacing:.21em;}.cls-145{letter-spacing:.24em;}.cls-146{letter-spacing:-.04em;}.cls-147{letter-spacing:.27em;}.cls-148{letter-spacing:.4em;}.cls-149{letter-spacing:.01em;}.cls-150{letter-spacing:.01em;}.cls-151{letter-spacing:.04em;}.cls-152{letter-spacing:.09em;}.cls-153{letter-spacing:.21em;}.cls-15{fill:#181818;}.cls-154{letter-spacing:.13em;}.cls-155{letter-spacing:-.06em;}.cls-156{letter-spacing:.07em;}.cls-157{letter-spacing:.16em;}.cls-158{letter-spacing:.13em;}.cls-159{letter-spacing:.32em;}.cls-160{letter-spacing:.21em;}.cls-161{letter-spacing:.16em;}.cls-162{letter-spacing:.72em;}.cls-163{letter-spacing:.13em;}.cls-164{letter-spacing:.01em;}.cls-165{letter-spacing:0em;}.cls-166{letter-spacing:.01em;}.cls-167{letter-spacing:0em;}.cls-168{letter-spacing:.01em;}</style></defs><g id="cluster_thrones.game"><path class="cls-9" d="M3.25,365.89H101.25c1.2,.36,2.14,1.3,2.5,2.5l7,21.11H2297.25c1.38,0,2.5,1.12,2.5,2.5V2784.25c0,1.38-1.12,2.5-2.5,2.5H3.25c-1.38,0-2.5-1.12-2.5-2.5V368.39c0-1.38,1.12-2.5,2.5-2.5"/><line class="cls-9" x1=".75" y1="389.5" x2="110.75" y2="389.5"/><text class="cls-38" transform="translate(4.75 382.42)"><tspan class="cls-124" x="0" y="0">thrones.gam</tspan><tspan x="89.21" y="0">e</tspan></text></g><g id="cluster_thrones.game.GoTCards"><rect class="cls-7" x="1583.75" y="500.75" width="676" height="692.5" rx="2.5" ry="2.5"/><text class="cls-38" transform="translate(1836.75 517.28)"><tspan class="cls-5" x="0" y="0">thrones.game.GoTCard</tspan><tspan x="162.21" y="0">s</tspan></text></g><g id="cluster_ch.aplu.jcardgame"><path class="cls-9" d="M1961.25,.75h129c1.2,.36,2.14,1.3,2.5,2.5l7,21.11h591.5c1.38,0,2.5,1.12,2.5,2.5h0V114.25c0,1.38-1.12,2.5-2.5,2.5h-730c-1.38,0-2.5-1.12-2.5-2.5V3.25c0-1.38,1.12-2.5,2.5-2.5"/><line class="cls-9" x1="1958.75" y1="24.36" x2="2099.75" y2="24.36"/><text class="cls-38" transform="translate(1962.75 17.28)"><tspan class="cls-143" x="0" y="0">ch.aplu.jcardgam</tspan><tspan x="120.21" y="0">e</tspan></text></g><g id="cluster_java.lang"><path class="cls-9" d="M2334.25,2669.75h64c1.2,.36,2.14,1.3,2.5,2.5l7,21.11h47.5c1.38,0,2.5,1.12,2.5,2.5v71.39c0,1.38-1.12,2.5-2.5,2.5h-121c-1.38,0-2.5-1.12-2.5-2.5v-95c0-1.38,1.12-2.5,2.5-2.5"/><line class="cls-9" x1="2331.75" y1="2693.36" x2="2407.75" y2="2693.36"/><text class="cls-38" transform="translate(2335.08 2686.28)"><tspan class="cls-76" x="0" y="0">java.lan</tspan><tspan x="54.45" y="0">g</tspan></text></g><g id="elem_thrones.game.Human"><rect id="thrones.game.Human" class="cls-12" x="1113.25" y="2133.25" width="319" height="100.83" rx="2.5" ry="2.5"/><circle class="cls-11" cx="1246.5" cy="2149.25" r="11"/><path d="M1248.5,2145.75c.14-.33,.28-.58,.44-.75s.32-.25,.5-.25c.31,0,.57,.09,.77,.28s.3,.5,.3,.94v1.56c0,.44-.09,.75-.28,.94s-.43,.28-.72,.28c-.26,0-.47-.06-.64-.17s-.29-.32-.36-.62c-.03-.21-.1-.37-.22-.48-.21-.22-.5-.39-.88-.52-.38-.14-.75-.2-1.12-.2-.47,0-.9,.09-1.3,.28-.39,.19-.73,.49-1.03,.91s-.45,.91-.45,1.48v.92c0,.69,.28,1.26,.84,1.72s1.34,.69,2.34,.69c.59,0,1.1-.07,1.52-.2,.24-.07,.49-.23,.77-.47,.18-.14,.31-.22,.41-.27s.2-.06,.31-.06c.22,0,.41,.09,.56,.27,.17,.17,.25,.37,.25,.61s-.11,.48-.34,.75c-.33,.4-.77,.7-1.3,.92-.7,.3-1.47,.45-2.33,.45-1,0-1.9-.2-2.7-.59-.65-.31-1.2-.81-1.66-1.48-.45-.68-.67-1.42-.67-2.22v-1.09c0-.83,.2-1.61,.59-2.34,.41-.73,.96-1.29,1.66-1.67,.71-.4,1.46-.59,2.25-.59,.48,0,.93,.08,1.34,.25s.8,.42,1.16,.75Z"/><text class="cls-36" transform="translate(1267 2154.98)"><tspan x="0" y="0">Human</tspan></text><line class="cls-8" x1="1114.25" y1="2165.25" x2="1431.25" y2="2165.25"/><line class="cls-8" x1="1114.25" y1="2173.25" x2="1431.25" y2="2173.25"/><text class="cls-36" transform="translate(1119.25 2191.78)"><tspan x="0" y="0">+makeMove(CardGame,</tspan><tspan class="cls-111" x="153.67" y="0">T</tspan><tspan x="160.67" y="0">ablePile,boolean):</tspan><tspan class="cls-88" x="272.75" y="0"> </tspan><tspan x="281.32" y="0">void</tspan></text><text class="cls-36" transform="translate(1119.25 2209.39)"><tspan x="0" y="0">+pickACorrectSuit(boolean):</tspan><tspan class="cls-160" x="175.47" y="0"> </tspan><tspan x="182.32" y="0">void</tspan></text><text class="cls-36" transform="translate(1119.25 2227)"><tspan x="0" y="0">+selectPile(</tspan><tspan class="cls-111" x="72.75" y="0">T</tspan><tspan x="79.75" y="0">ablePile,boolean):</tspan><tspan class="cls-107" x="191.84" y="0"> </tspan><tspan x="200.32" y="0">void</tspan></text></g><g id="elem_thrones.game.Dealer"><rect id="thrones.game.Dealer" class="cls-12" x="1179.25" y="1618.75" width="213" height="83.22" rx="2.5" ry="2.5"/><circle class="cls-11" cx="1260.5" cy="1634.75" r="11"/><path d="M1262.5,1631.25c.14-.33,.28-.58,.44-.75s.32-.25,.5-.25c.31,0,.57,.09,.77,.28s.3,.5,.3,.94v1.56c0,.44-.09,.75-.28,.94s-.43,.28-.72,.28c-.26,0-.47-.06-.64-.17s-.29-.32-.36-.62c-.03-.21-.1-.37-.22-.48-.21-.22-.5-.39-.88-.52-.38-.14-.75-.2-1.12-.2-.47,0-.9,.09-1.3,.28-.39,.19-.73,.49-1.03,.91s-.45,.91-.45,1.48v.92c0,.69,.28,1.26,.84,1.72s1.34,.69,2.34,.69c.59,0,1.1-.07,1.52-.2,.24-.07,.49-.23,.77-.47,.18-.14,.31-.22,.41-.27s.2-.06,.31-.06c.22,0,.41,.09,.56,.27,.17,.17,.25,.37,.25,.61s-.11,.48-.34,.75c-.33,.4-.77,.7-1.3,.92-.7,.3-1.47,.45-2.33,.45-1,0-1.9-.2-2.7-.59-.65-.31-1.2-.81-1.66-1.48-.45-.68-.67-1.42-.67-2.22v-1.09c0-.83,.2-1.61,.59-2.34,.41-.73,.96-1.29,1.66-1.67,.71-.4,1.46-.59,2.25-.59,.48,0,.93,.08,1.34,.25s.8,.42,1.16,.75Z"/><text class="cls-36" transform="translate(1281 1640.48)"><tspan class="cls-150" x="0" y="0">Deale</tspan><tspan x="37.34" y="0">r</tspan></text><line class="cls-8" x1="1180.25" y1="1650.75" x2="1391.25" y2="1650.75"/><line class="cls-8" x1="1180.25" y1="1658.75" x2="1391.25" y2="1658.75"/><text class="cls-39" transform="translate(1185.25 1677.28)"><tspan x="0" y="0">+deal(Player[],int,int,Deck):</tspan><tspan class="cls-70" x="168.46" y="0"> </tspan><tspan x="175.32" y="0">void</tspan></text><text class="cls-39" transform="translate(1185.25 1694.89)"><tspan x="0" y="0">-randomCard(Hand):</tspan><tspan class="cls-95" x="129.16" y="0"> </tspan><tspan x="135.66" y="0">Card</tspan></text></g><g id="elem_thrones.game.RuleChecker"><rect id="thrones.game.RuleChecker" class="cls-12" x="504.75" y="2142.25" width="346" height="83.22" rx="2.5" ry="2.5"/><circle class="cls-11" cx="632.5" cy="2158.25" r="11"/><path d="M634.5,2154.75c.14-.33,.28-.58,.44-.75s.32-.25,.5-.25c.31,0,.57,.09,.77,.28,.2,.19,.3,.5,.3,.94v1.56c0,.44-.09,.75-.28,.94-.19,.19-.43,.28-.72,.28-.26,0-.47-.06-.64-.17s-.29-.32-.36-.62c-.03-.21-.1-.37-.22-.48-.21-.22-.5-.39-.88-.52-.38-.14-.75-.2-1.12-.2-.47,0-.9,.09-1.3,.28-.39,.19-.73,.49-1.03,.91-.3,.42-.45,.91-.45,1.48v.92c0,.69,.28,1.26,.84,1.72,.56,.46,1.34,.69,2.34,.69,.59,0,1.1-.07,1.52-.2,.24-.07,.49-.23,.77-.47,.18-.14,.31-.22,.41-.27s.2-.06,.31-.06c.22,0,.41,.09,.56,.27,.17,.17,.25,.37,.25,.61s-.11,.48-.34,.75c-.33,.4-.77,.7-1.3,.92-.7,.3-1.47,.45-2.33,.45-1,0-1.9-.2-2.7-.59-.65-.31-1.2-.81-1.66-1.48-.45-.68-.67-1.42-.67-2.22v-1.09c0-.83,.2-1.61,.59-2.34,.41-.73,.96-1.29,1.66-1.67,.71-.4,1.46-.59,2.25-.59,.48,0,.93,.08,1.34,.25,.42,.17,.8,.42,1.16,.75Z"/><text class="cls-36" transform="translate(653 2163.98)"><tspan class="cls-34" x="0" y="0">RuleChecke</tspan><tspan x="77.34" y="0">r</tspan></text><line class="cls-8" x1="505.75" y1="2174.25" x2="849.75" y2="2174.25"/><text class="cls-36" transform="translate(510.75 2192.78)"><tspan x="0" y="0">-rules:</tspan><tspan class="cls-119" x="38.9" y="0"> </tspan><tspan x="44.62" y="0">ArrayList&lt;Rule&gt;</tspan></text><line class="cls-8" x1="505.75" y1="2199.86" x2="849.75" y2="2199.86"/><text class="cls-36" transform="translate(510.75 2218.39)"><tspan x="0" y="0">+checkMove(GoTCards.Suit,Hand,boolean):</tspan><tspan class="cls-159" x="275.86" y="0"> </tspan><tspan x="284.17" y="0">boolean</tspan></text></g><g id="elem_thrones.game.GameOfThrones"><rect id="thrones.game.GameOfThrones" class="cls-12" x="438.25" y="830.75" width="281" height="364.97" rx="2.5" ry="2.5"/><circle class="cls-11" cx="521.5" cy="846.75" r="11"/><path d="M523.5,843.25c.14-.33,.28-.58,.44-.75s.32-.25,.5-.25c.31,0,.57,.09,.77,.28,.2,.19,.3,.5,.3,.94v1.56c0,.44-.09,.75-.28,.94-.19,.19-.43,.28-.72,.28-.26,0-.47-.06-.64-.17s-.29-.32-.36-.62c-.03-.21-.1-.37-.22-.48-.21-.22-.5-.39-.88-.52-.38-.14-.75-.2-1.12-.2-.47,0-.9,.09-1.3,.28-.39,.19-.73,.49-1.03,.91-.3,.42-.45,.91-.45,1.48v.92c0,.69,.28,1.26,.84,1.72,.56,.46,1.34,.69,2.34,.69,.59,0,1.1-.07,1.52-.2,.24-.07,.49-.23,.77-.47,.18-.14,.31-.22,.41-.27s.2-.06,.31-.06c.22,0,.41,.09,.56,.27,.17,.17,.25,.37,.25,.61s-.11,.48-.34,.75c-.33,.4-.77,.7-1.3,.92-.7,.3-1.47,.45-2.33,.45-1,0-1.9-.2-2.7-.59-.65-.31-1.2-.81-1.66-1.48-.45-.68-.67-1.42-.67-2.22v-1.09c0-.83,.2-1.61,.59-2.34,.41-.73,.96-1.29,1.66-1.67,.71-.4,1.46-.59,2.25-.59,.48,0,.93,.08,1.34,.25,.42,.17,.8,.42,1.16,.75Z"/><text class="cls-36" transform="translate(542 852.48)"><tspan class="cls-166" x="0" y="0">GameOfThrone</tspan><tspan x="99" y="0">s</tspan></text><line class="cls-8" x1="439.25" y1="862.75" x2="718.25" y2="862.75"/><text class="cls-39" transform="translate(444.25 881.28)"><tspan x="0" y="0">-DE</tspan><tspan class="cls-155" x="24.11" y="0">F</tspan><tspan x="31.89" y="0">AU</tspan><tspan class="cls-23" x="51.34" y="0">L</tspan><tspan x="58.08" y="0">T_PROPE</tspan><tspan class="cls-135" x="123.44" y="0">R</tspan><tspan x="133.29" y="0">TIES_</tspan><tspan class="cls-23" x="172.2" y="0">PA</tspan><tspan x="188.79" y="0">TH:</tspan><tspan class="cls-152" x="211.35" y="0"> </tspan><tspan x="216.43" y="0">String</tspan></text><text class="cls-39" transform="translate(444.25 898.89)"><tspan x="0" y="0">-SMALL_FON</tspan><tspan class="cls-111" x="87.91" y="0">T</tspan><tspan x="94.91" y="0">:</tspan><tspan class="cls-116" x="98.8" y="0"> </tspan><tspan x="104.99" y="0">Font</tspan></text><text class="cls-39" transform="translate(444.25 916.5)"><tspan x="0" y="0">-BIG_FON</tspan><tspan class="cls-111" x="66.12" y="0">T</tspan><tspan x="73.12" y="0">:</tspan><tspan class="cls-96" x="77.01" y="0"> </tspan><tspan x="82.99" y="0">Font</tspan></text><text class="cls-39" transform="translate(444.25 934.11)"><tspan x="0" y="0">-SEED: int</tspan></text><text class="cls-39" transform="translate(444.25 951.72)"><tspan x="0" y="0">-RANDOM: Random</tspan></text><text class="cls-39" transform="translate(444.25 969.33)"><tspan x="0" y="0">-DE</tspan><tspan class="cls-155" x="24.11" y="0">F</tspan><tspan x="31.89" y="0">AU</tspan><tspan class="cls-23" x="51.34" y="0">L</tspan><tspan x="58.08" y="0">T_NPL</tspan><tspan class="cls-23" x="101.66" y="0">A</tspan><tspan x="109.96" y="0">YERS:</tspan><tspan class="cls-54" x="151.97" y="0"> </tspan><tspan x="156.21" y="0">int</tspan></text><text class="cls-39" transform="translate(444.25 986.94)"><tspan x="0" y="0">-</tspan><tspan class="cls-146" x="4.66" y="0">W</tspan><tspan class="cls-23" x="17.36" y="0">A</tspan><tspan x="25.66" y="0">TCHING_TIME: int</tspan></text><text class="cls-36" transform="translate(444.25 1004.55)"><tspan x="0" y="0">-version:</tspan><tspan class="cls-158" x="53.68" y="0"> </tspan><tspan x="59.43" y="0">String</tspan></text><text class="cls-36" transform="translate(444.25 1022.16)"><tspan x="0" y="0">-propertiesPath:</tspan><tspan class="cls-44" x="99.61" y="0"> </tspan><tspan x="106.43" y="0">String</tspan></text><line class="cls-8" x1="439.25" y1="1029.23" x2="718.25" y2="1029.23"/><text class="cls-39" transform="translate(444.25 1047.77)"><tspan x="0" y="0">+main(String[]):</tspan><tspan class="cls-84" x="96.09" y="0"> </tspan><tspan x="101.32" y="0">void</tspan></text><text class="cls-39" transform="translate(444.25 1065.38)"><tspan x="0" y="0">+getSmallFont():</tspan><tspan class="cls-87" x="103.87" y="0"> </tspan><tspan x="109.99" y="0">Font</tspan></text><text class="cls-39" transform="translate(444.25 1082.99)"><tspan x="0" y="0">+getBigFont():</tspan><tspan class="cls-153" x="89.1" y="0"> </tspan><tspan x="95.99" y="0">Font</tspan></text><text class="cls-39" transform="translate(444.25 1100.6)"><tspan x="0" y="0">+getSeed():</tspan><tspan class="cls-71" x="73.55" y="0"> </tspan><tspan x="79.21" y="0">int</tspan></text><text class="cls-39" transform="translate(444.25 1118.21)"><tspan x="0" y="0">+getRandom():</tspan><tspan class="cls-100" x="93.77" y="0"> </tspan><tspan x="99.08" y="0">Random</tspan></text><text class="cls-39" transform="translate(444.25 1135.81)"><tspan x="0" y="0">+get</tspan><tspan class="cls-146" x="27.64" y="0">W</tspan><tspan x="40.33" y="0">atching</tspan><tspan class="cls-146" x="85.48" y="0">T</tspan><tspan x="93.51" y="0">ime():</tspan><tspan class="cls-61" x="129.28" y="0"> </tspan><tspan x="136.21" y="0">int</tspan></text><text class="cls-36" transform="translate(444.25 1153.42)"><tspan x="0" y="0">+get</tspan><tspan class="cls-155" x="27.64" y="0">V</tspan><tspan x="36.2" y="0">ersion():</tspan><tspan class="cls-144" x="87.55" y="0"> </tspan><tspan x="94.43" y="0">String</tspan></text><text class="cls-36" transform="translate(444.25 1171.03)"><tspan x="0" y="0">+getPlayer</tspan><tspan class="cls-155" x="67.32" y="0">T</tspan><tspan x="75.1" y="0">ypes():</tspan><tspan class="cls-148" x="117.89" y="0"> </tspan><tspan x="127.38" y="0">ArrayList&lt;Player</tspan><tspan class="cls-155" x="230.47" y="0">T</tspan><tspan x="238.25" y="0">ype&gt;</tspan></text><text class="cls-36" transform="translate(444.25 1188.64)"><tspan x="0" y="0">-initWithProperties(String):</tspan><tspan class="cls-59" x="164.15" y="0"> </tspan><tspan x="171.32" y="0">void</tspan></text></g><g id="elem_thrones.game.Ai"><rect id="thrones.game.Ai" class="cls-12" x="1582.75" y="2124.75" width="238" height="118.44" rx="2.5" ry="2.5"/><circle class="cls-11" cx="1691.5" cy="2140.75" r="11"/><path d="M1693.5,2137.25c.14-.33,.28-.58,.44-.75s.32-.25,.5-.25c.31,0,.57,.09,.77,.28s.3,.5,.3,.94v1.56c0,.44-.09,.75-.28,.94s-.43,.28-.72,.28c-.26,0-.47-.06-.64-.17s-.29-.32-.36-.62c-.03-.21-.1-.37-.22-.48-.21-.22-.5-.39-.88-.52-.38-.14-.75-.2-1.12-.2-.47,0-.9,.09-1.3,.28-.39,.19-.73,.49-1.03,.91s-.45,.91-.45,1.48v.92c0,.69,.28,1.26,.84,1.72s1.34,.69,2.34,.69c.59,0,1.1-.07,1.52-.2,.24-.07,.49-.23,.77-.47,.18-.14,.31-.22,.41-.27s.2-.06,.31-.06c.22,0,.41,.09,.56,.27,.17,.17,.25,.37,.25,.61s-.11,.48-.34,.75c-.33,.4-.77,.7-1.3,.92-.7,.3-1.47,.45-2.33,.45-1,0-1.9-.2-2.7-.59-.65-.31-1.2-.81-1.66-1.48-.45-.68-.67-1.42-.67-2.22v-1.09c0-.83,.2-1.61,.59-2.34,.41-.73,.96-1.29,1.66-1.67,.71-.4,1.46-.59,2.25-.59,.48,0,.93,.08,1.34,.25s.8,.42,1.16,.75Z"/><text class="cls-36" transform="translate(1712 2146.48)"><tspan x="0" y="0">Ai</tspan></text><line class="cls-8" x1="1583.75" y1="2156.75" x2="1819.75" y2="2156.75"/><text class="cls-36" transform="translate(1588.75 2175.28)"><tspan x="0" y="0">-random:</tspan><tspan class="cls-56" x="56.02" y="0"> </tspan><tspan x="61.08" y="0">Random</tspan></text><line class="cls-8" x1="1583.75" y1="2182.36" x2="1819.75" y2="2182.36"/><text class="cls-36" transform="translate(1588.75 2200.89)"><tspan x="0" y="0">+getRandom():</tspan><tspan class="cls-100" x="93.77" y="0"> </tspan><tspan x="99.08" y="0">Random</tspan></text><text class="cls-36" transform="translate(1588.75 2218.5)"><tspan x="0" y="0">+pickACorrectSuit(boolean):</tspan><tspan class="cls-160" x="175.47" y="0"> </tspan><tspan x="182.32" y="0">void</tspan></text><text class="cls-36" transform="translate(1588.75 2236.11)"><tspan x="0" y="0">+selectPile(</tspan><tspan class="cls-111" x="72.75" y="0">T</tspan><tspan x="79.75" y="0">ablePile,boolean):</tspan><tspan class="cls-107" x="191.84" y="0"> </tspan><tspan x="200.32" y="0">void</tspan></text></g><g id="elem_thrones.game.SimpleAi"><rect id="thrones.game.SimpleAi" class="cls-12" x="1487.25" y="2428.25" width="319" height="83.22" rx="2.5" ry="2.5"/><circle class="cls-11" cx="1615.5" cy="2444.25" r="11"/><path d="M1617.5,2440.75c.14-.33,.28-.58,.44-.75s.32-.25,.5-.25c.31,0,.57,.09,.77,.28s.3,.5,.3,.94v1.56c0,.44-.09,.75-.28,.94s-.43,.28-.72,.28c-.26,0-.47-.06-.64-.17s-.29-.32-.36-.62c-.03-.21-.1-.37-.22-.48-.21-.22-.5-.39-.88-.52-.38-.14-.75-.2-1.12-.2-.47,0-.9,.09-1.3,.28-.39,.19-.73,.49-1.03,.91s-.45,.91-.45,1.48v.92c0,.69,.28,1.26,.84,1.72s1.34,.69,2.34,.69c.59,0,1.1-.07,1.52-.2,.24-.07,.49-.23,.77-.47,.18-.14,.31-.22,.41-.27s.2-.06,.31-.06c.22,0,.41,.09,.56,.27,.17,.17,.25,.37,.25,.61s-.11,.48-.34,.75c-.33,.4-.77,.7-1.3,.92-.7,.3-1.47,.45-2.33,.45-1,0-1.9-.2-2.7-.59-.65-.31-1.2-.81-1.66-1.48-.45-.68-.67-1.42-.67-2.22v-1.09c0-.83,.2-1.61,.59-2.34,.41-.73,.96-1.29,1.66-1.67,.71-.4,1.46-.59,2.25-.59,.48,0,.93,.08,1.34,.25s.8,.42,1.16,.75Z"/><text class="cls-36" transform="translate(1636 2449.98)"><tspan x="0" y="0">SimpleAi</tspan></text><line class="cls-8" x1="1488.25" y1="2460.25" x2="1805.25" y2="2460.25"/><line class="cls-8" x1="1488.25" y1="2468.25" x2="1805.25" y2="2468.25"/><text class="cls-36" transform="translate(1493.25 2486.78)"><tspan x="0" y="0">+makeMove(CardGame,</tspan><tspan class="cls-111" x="153.67" y="0">T</tspan><tspan x="160.67" y="0">ablePile,boolean):</tspan><tspan class="cls-88" x="272.75" y="0"> </tspan><tspan x="281.32" y="0">void</tspan></text><text class="cls-36" transform="translate(1493.25 2504.39)"><tspan x="0" y="0">-removeHinderMoves(</tspan><tspan class="cls-111" x="138.48" y="0">T</tspan><tspan x="145.48" y="0">ablePile):</tspan><tspan class="cls-28" x="203.85" y="0"> </tspan><tspan x="211.32" y="0">void</tspan></text></g><g id="elem_thrones.game.Rule"><rect id="thrones.game.Rule" class="cls-12" x="294.75" y="2436.75" width="252" height="65.61" rx="2.5" ry="2.5"/><circle class="cls-13" cx="402" cy="2452.75" r="11"/><path d="M403,2449.75v6h2.48l.52,.62v.75l-.52,.62h-6.97l-.52-.62v-.75l.52-.62h2.48v-6h-2.48l-.52-.62v-.75l.52-.62h6.97l.52,.62v.75l-.52,.62h-2.48Z"/><text class="cls-35" transform="translate(422.5 2458.48)"><tspan class="cls-97" x="0" y="0">Rul</tspan><tspan x="21.21" y="0">e</tspan></text><line class="cls-8" x1="295.75" y1="2468.75" x2="545.75" y2="2468.75"/><line class="cls-8" x1="295.75" y1="2476.75" x2="545.75" y2="2476.75"/><text class="cls-36" transform="translate(300.75 2495.28)"><tspan x="0" y="0">~check</tspan><tspan class="cls-23" x="44.75" y="0">V</tspan><tspan x="53.05" y="0">alidMove(Suit,Hand):</tspan><tspan class="cls-132" x="183.77" y="0"> </tspan><tspan x="190.17" y="0">boolean</tspan></text></g><g id="elem_thrones.game.PropertiesLoader"><rect id="thrones.game.PropertiesLoader" class="cls-12" x="451.25" y="579.75" width="255" height="65.61" rx="2.5" ry="2.5"/><circle class="cls-11" cx="519.5" cy="595.75" r="11"/><path d="M521.5,592.25c.14-.33,.28-.58,.44-.75s.32-.25,.5-.25c.31,0,.57,.09,.77,.28,.2,.19,.3,.5,.3,.94v1.56c0,.44-.09,.75-.28,.94-.19,.19-.43,.28-.72,.28-.26,0-.47-.06-.64-.17s-.29-.32-.36-.62c-.03-.21-.1-.37-.22-.48-.21-.22-.5-.39-.88-.52-.38-.14-.75-.2-1.12-.2-.47,0-.9,.09-1.3,.28-.39,.19-.73,.49-1.03,.91-.3,.42-.45,.91-.45,1.48v.92c0,.69,.28,1.26,.84,1.72,.56,.46,1.34,.69,2.34,.69,.59,0,1.1-.07,1.52-.2,.24-.07,.49-.23,.77-.47,.18-.14,.31-.22,.41-.27s.2-.06,.31-.06c.22,0,.41,.09,.56,.27,.17,.17,.25,.37,.25,.61s-.11,.48-.34,.75c-.33,.4-.77,.7-1.3,.92-.7,.3-1.47,.45-2.33,.45-1,0-1.9-.2-2.7-.59-.65-.31-1.2-.81-1.66-1.48-.45-.68-.67-1.42-.67-2.22v-1.09c0-.83,.2-1.61,.59-2.34,.41-.73,.96-1.29,1.66-1.67,.71-.4,1.46-.59,2.25-.59,.48,0,.93,.08,1.34,.25,.42,.17,.8,.42,1.16,.75Z"/><text class="cls-36" transform="translate(540 601.48)"><tspan class="cls-106" x="0" y="0">PropertiesLoade</tspan><tspan x="105.34" y="0">r</tspan></text><line class="cls-8" x1="452.25" y1="611.75" x2="705.25" y2="611.75"/><line class="cls-8" x1="452.25" y1="619.75" x2="705.25" y2="619.75"/><text class="cls-39" transform="translate(457.25 638.28)"><tspan x="0" y="0">+loadPropertiesFile(String):</tspan><tspan class="cls-79" x="170.8" y="0"> </tspan><tspan x="179.19" y="0">Properties</tspan></text></g><g id="elem_thrones.game.DiamondOnHeartRule"><rect id="thrones.game.DiamondOnHeartRule" class="cls-12" x="121.5" y="2696.92" width="258" height="65.61" rx="2.5" ry="2.5"/><circle class="cls-11" cx="177.25" cy="2712.92" r="11"/><path d="M179.25,2709.42c.14-.33,.28-.58,.44-.75s.32-.25,.5-.25c.31,0,.57,.09,.77,.28,.2,.19,.3,.5,.3,.94v1.56c0,.44-.09,.75-.28,.94-.19,.19-.43,.28-.72,.28-.26,0-.47-.06-.64-.17-.17-.11-.29-.32-.36-.62-.03-.21-.1-.37-.22-.48-.21-.22-.5-.39-.88-.52-.38-.14-.75-.2-1.12-.2-.47,0-.9,.09-1.3,.28-.39,.19-.73,.49-1.03,.91-.3,.42-.45,.91-.45,1.48v.92c0,.69,.28,1.26,.84,1.72,.56,.46,1.34,.69,2.34,.69,.59,0,1.1-.07,1.52-.2,.24-.07,.49-.23,.77-.47,.18-.14,.31-.22,.41-.27s.2-.06,.31-.06c.22,0,.41,.09,.56,.27,.17,.17,.25,.37,.25,.61s-.11,.48-.34,.75c-.33,.4-.77,.7-1.3,.92-.7,.3-1.47,.45-2.33,.45-1,0-1.9-.2-2.7-.59-.65-.31-1.2-.81-1.66-1.48-.45-.68-.67-1.42-.67-2.22v-1.09c0-.83,.2-1.61,.59-2.34,.41-.73,.96-1.29,1.66-1.67,.71-.4,1.46-.59,2.25-.59,.48,0,.93,.08,1.34,.25,.42,.17,.8,.42,1.16,.75Z"/><text class="cls-36" transform="translate(197.75 2718.65)"><tspan x="0" y="0">DiamondOnHeartRule</tspan></text><line class="cls-8" x1="122.5" y1="2728.92" x2="378.5" y2="2728.92"/><line class="cls-8" x1="122.5" y1="2736.92" x2="378.5" y2="2736.92"/><text class="cls-36" transform="translate(127.5 2755.45)"><tspan x="0" y="0">+check</tspan><tspan class="cls-23" x="44.75" y="0">V</tspan><tspan x="53.05" y="0">alidMove(Suit,Hand):</tspan><tspan class="cls-118" x="183.77" y="0"> </tspan><tspan x="189.17" y="0">booleanx</tspan></text></g><g id="elem_thrones.game.Table"><rect id="thrones.game.Table" class="cls-12" x="449.25" y="1512.75" width="247" height="294.53" rx="2.5" ry="2.5"/><circle class="cls-11" cx="550.5" cy="1528.75" r="11"/><path d="M552.5,1525.25c.14-.33,.28-.58,.44-.75s.32-.25,.5-.25c.31,0,.57,.09,.77,.28,.2,.19,.3,.5,.3,.94v1.56c0,.44-.09,.75-.28,.94-.19,.19-.43,.28-.72,.28-.26,0-.47-.06-.64-.17s-.29-.32-.36-.62c-.03-.21-.1-.37-.22-.48-.21-.22-.5-.39-.88-.52-.38-.14-.75-.2-1.12-.2-.47,0-.9,.09-1.3,.28-.39,.19-.73,.49-1.03,.91-.3,.42-.45,.91-.45,1.48v.92c0,.69,.28,1.26,.84,1.72,.56,.46,1.34,.69,2.34,.69,.59,0,1.1-.07,1.52-.2,.24-.07,.49-.23,.77-.47,.18-.14,.31-.22,.41-.27s.2-.06,.31-.06c.22,0,.41,.09,.56,.27,.17,.17,.25,.37,.25,.61s-.11,.48-.34,.75c-.33,.4-.77,.7-1.3,.92-.7,.3-1.47,.45-2.33,.45-1,0-1.9-.2-2.7-.59-.65-.31-1.2-.81-1.66-1.48-.45-.68-.67-1.42-.67-2.22v-1.09c0-.83,.2-1.61,.59-2.34,.41-.73,.96-1.29,1.66-1.67,.71-.4,1.46-.59,2.25-.59,.48,0,.93,.08,1.34,.25,.42,.17,.8,.42,1.16,.75Z"/><text class="cls-36" transform="translate(571 1534.48)"><tspan class="cls-60" x="0" y="0">T</tspan><tspan class="cls-82" x="7.63" y="0">abl</tspan><tspan x="28.21" y="0">e</tspan></text><line class="cls-8" x1="450.25" y1="1544.75" x2="695.25" y2="1544.75"/><text class="cls-36" transform="translate(455.25 1563.28)"><tspan x="0" y="0">+nbPlayers:</tspan><tspan class="cls-156" x="74.32" y="0"> </tspan><tspan x="79.21" y="0">int</tspan></text><text class="cls-36" transform="translate(455.25 1580.89)"><tspan x="0" y="0">+nbPlays:</tspan><tspan class="cls-112" x="61.87" y="0"> </tspan><tspan x="66.21" y="0">int</tspan></text><text class="cls-36" transform="translate(455.25 1598.5)"><tspan x="0" y="0">+nbRounds:</tspan><tspan class="cls-43" x="75.89" y="0"> </tspan><tspan x="81.21" y="0">int</tspan></text><text class="cls-36" transform="translate(455.25 1616.11)"><tspan x="0" y="0">-handWidth:</tspan><tspan class="cls-126" x="75.48" y="0"> </tspan><tspan x="81.21" y="0">int</tspan></text><text class="cls-36" transform="translate(455.25 1633.72)"><tspan x="0" y="0">-player</tspan><tspan class="cls-111" x="42.79" y="0">T</tspan><tspan x="49.79" y="0">eams:</tspan><tspan class="cls-123" x="87.92" y="0"> </tspan><tspan x="95.65" y="0">String[]</tspan></text><text class="cls-36" transform="translate(455.25 1651.33)"><tspan x="0" y="0">-rules:</tspan><tspan class="cls-120" x="38.9" y="0"> </tspan><tspan x="45.08" y="0">RuleChecker</tspan></text><text class="cls-36" transform="translate(455.25 1668.94)"><tspan x="0" y="0">-handLocations:</tspan><tspan class="cls-147" x="99.63" y="0"> </tspan><tspan x="107.29" y="0">Location[]</tspan></text><text class="cls-36" transform="translate(455.25 1686.55)"><tspan x="0" y="0">-deck:</tspan><tspan class="cls-108" x="38.12" y="0"> </tspan><tspan x="43.1" y="0">Deck</tspan></text><text class="cls-36" transform="translate(455.25 1704.16)"><tspan x="0" y="0">-nextStartingPlayer:</tspan><tspan class="cls-42" x="122.94" y="0"> </tspan><tspan x="128.21" y="0">int</tspan></text><text class="cls-36" transform="translate(455.25 1721.77)"><tspan x="0" y="0">-player</tspan><tspan class="cls-155" x="42.79" y="0">T</tspan><tspan x="50.57" y="0">ypes:</tspan><tspan class="cls-73" x="84.03" y="0"> </tspan><tspan x="93.38" y="0">ArrayList&lt;Player</tspan><tspan class="cls-155" x="196.47" y="0">T</tspan><tspan x="204.25" y="0">ype&gt;</tspan></text><text class="cls-36" transform="translate(455.25 1739.38)"><tspan x="0" y="0">-players:</tspan><tspan class="cls-101" x="53.68" y="0"> </tspan><tspan x="59.54" y="0">Player[]</tspan></text><line class="cls-8" x1="450.25" y1="1746.45" x2="695.25" y2="1746.45"/><text class="cls-36" transform="translate(455.25 1764.99)"><tspan x="0" y="0">-setupGame():</tspan><tspan class="cls-47" x="90.25" y="0"> </tspan><tspan x="96.32" y="0">void</tspan></text><text class="cls-36" transform="translate(455.25 1782.6)"><tspan x="0" y="0">-getPlayerIndex(int):</tspan><tspan class="cls-140" x="126.05" y="0"> </tspan><tspan x="131.21" y="0">int</tspan></text><text class="cls-36" transform="translate(455.25 1800.21)"><tspan x="0" y="0">-executeAPlay():</tspan><tspan class="cls-49" x="103.48" y="0"> </tspan><tspan x="108.32" y="0">void</tspan></text></g><g id="elem_thrones.game.ScoreHandler"><rect id="thrones.game.ScoreHandler" class="cls-12" x="846.25" y="1539.25" width="183" height="241.7" rx="2.5" ry="2.5"/><circle class="cls-11" cx="890.5" cy="1555.25" r="11"/><path d="M892.5,1551.75c.14-.33,.28-.58,.44-.75s.32-.25,.5-.25c.31,0,.57,.09,.77,.28s.3,.5,.3,.94v1.56c0,.44-.09,.75-.28,.94-.19,.19-.43,.28-.72,.28-.26,0-.47-.06-.64-.17s-.29-.32-.36-.62c-.03-.21-.1-.37-.22-.48-.21-.22-.5-.39-.88-.52-.38-.14-.75-.2-1.12-.2-.47,0-.9,.09-1.3,.28-.39,.19-.73,.49-1.03,.91s-.45,.91-.45,1.48v.92c0,.69,.28,1.26,.84,1.72,.56,.46,1.34,.69,2.34,.69,.59,0,1.1-.07,1.52-.2,.24-.07,.49-.23,.77-.47,.18-.14,.31-.22,.41-.27s.2-.06,.31-.06c.22,0,.41,.09,.56,.27,.17,.17,.25,.37,.25,.61s-.11,.48-.34,.75c-.33,.4-.77,.7-1.3,.92-.7,.3-1.47,.45-2.33,.45-1,0-1.9-.2-2.7-.59-.65-.31-1.2-.81-1.66-1.48-.45-.68-.67-1.42-.67-2.22v-1.09c0-.83,.2-1.61,.59-2.34,.41-.73,.96-1.29,1.66-1.67,.71-.4,1.46-.59,2.25-.59,.48,0,.93,.08,1.34,.25,.42,.17,.8,.42,1.16,.75Z"/><text class="cls-36" transform="translate(911 1560.98)"><tspan class="cls-80" x="0" y="0">ScoreHandle</tspan><tspan x="81.34" y="0">r</tspan></text><line class="cls-8" x1="847.25" y1="1571.25" x2="1028.25" y2="1571.25"/><text class="cls-36" transform="translate(852.25 1589.78)"><tspan x="0" y="0">+nbPlays:</tspan><tspan class="cls-112" x="61.87" y="0"> </tspan><tspan x="66.21" y="0">int</tspan></text><text class="cls-36" transform="translate(852.25 1607.39)"><tspan x="0" y="0">+nbPlayers:</tspan><tspan class="cls-156" x="74.32" y="0"> </tspan><tspan x="79.21" y="0">int</tspan></text><text class="cls-36" transform="translate(852.25 1625)"><tspan x="0" y="0">-player</tspan><tspan class="cls-111" x="42.79" y="0">T</tspan><tspan x="49.79" y="0">eams:</tspan><tspan class="cls-123" x="87.92" y="0"> </tspan><tspan x="95.65" y="0">String[]</tspan></text><text class="cls-36" transform="translate(852.25 1642.61)"><tspan x="0" y="0">-scoreLocations:</tspan><tspan class="cls-4" x="102.72" y="0"> </tspan><tspan x="110.29" y="0">Location[]</tspan></text><text class="cls-36" transform="translate(852.25 1660.22)"><tspan x="0" y="0">-scoreActors:</tspan><tspan class="cls-157" x="82.46" y="0"> </tspan><tspan x="88.54" y="0">Actor[]</tspan></text><text class="cls-36" transform="translate(852.25 1677.83)"><tspan x="0" y="0">-scores:</tspan><tspan class="cls-31" x="49.79" y="0"> </tspan><tspan x="55.43" y="0">int[]</tspan></text><line class="cls-8" x1="847.25" y1="1684.91" x2="1028.25" y2="1684.91"/><text class="cls-36" transform="translate(852.25 1703.44)"><tspan x="0" y="0">-initScore():</tspan><tspan class="cls-133" x="72.34" y="0"> </tspan><tspan x="78.32" y="0">void</tspan></text><text class="cls-36" transform="translate(852.25 1721.05)"><tspan x="0" y="0">+updateScore(int):</tspan><tspan class="cls-68" x="115.57" y="0"> </tspan><tspan x="122.32" y="0">void</tspan></text><text class="cls-36" transform="translate(852.25 1738.66)"><tspan x="0" y="0">+updateScores():</tspan><tspan class="cls-142" x="107.78" y="0"> </tspan><tspan x="114.32" y="0">void</tspan></text><text class="cls-36" transform="translate(852.25 1756.27)"><tspan x="0" y="0">+setScores(int,int):</tspan><tspan class="cls-75" x="117.1" y="0"> </tspan><tspan x="123.32" y="0">void</tspan></text><text class="cls-36" transform="translate(852.25 1773.88)"><tspan x="0" y="0">+displayResults():</tspan><tspan class="cls-71" x="111.65" y="0"> </tspan><tspan x="117.32" y="0">void</tspan></text></g><g id="elem_thrones.game.TablePile"><rect id="thrones.game.TablePile" class="cls-12" x="37.75" y="1345.75" width="250" height="629.11" rx="2.5" ry="2.5"/><circle class="cls-11" cx="129" cy="1361.75" r="11"/><path d="M131,1358.25c.14-.33,.28-.58,.44-.75s.32-.25,.5-.25c.31,0,.57,.09,.77,.28,.2,.19,.3,.5,.3,.94v1.56c0,.44-.09,.75-.28,.94-.19,.19-.43,.28-.72,.28-.26,0-.47-.06-.64-.17s-.29-.32-.36-.62c-.03-.21-.1-.37-.22-.48-.21-.22-.5-.39-.88-.52-.38-.14-.75-.2-1.12-.2-.47,0-.9,.09-1.3,.28-.39,.19-.73,.49-1.03,.91-.3,.42-.45,.91-.45,1.48v.92c0,.69,.28,1.26,.84,1.72,.56,.46,1.34,.69,2.34,.69,.59,0,1.1-.07,1.52-.2,.24-.07,.49-.23,.77-.47,.18-.14,.31-.22,.41-.27s.2-.06,.31-.06c.22,0,.41,.09,.56,.27,.17,.17,.25,.37,.25,.61s-.11,.48-.34,.75c-.33,.4-.77,.7-1.3,.92-.7,.3-1.47,.45-2.33,.45-1,0-1.9-.2-2.7-.59-.65-.31-1.2-.81-1.66-1.48-.45-.68-.67-1.42-.67-2.22v-1.09c0-.83,.2-1.61,.59-2.34,.41-.73,.96-1.29,1.66-1.67,.71-.4,1.46-.59,2.25-.59,.48,0,.93,.08,1.34,.25,.42,.17,.8,.42,1.16,.75Z"/><text class="cls-36" transform="translate(149.5 1367.48)"><tspan class="cls-6" x="0" y="0">T</tspan><tspan class="cls-3" x="7.27" y="0">ablePil</tspan><tspan x="51.21" y="0">e</tspan></text><line class="cls-8" x1="38.75" y1="1377.75" x2="286.75" y2="1377.75"/><text class="cls-36" transform="translate(43.75 1396.28)"><tspan x="0" y="0">-PILE_WIDTH: int</tspan></text><text class="cls-36" transform="translate(43.75 1413.89)"><tspan x="0" y="0">-NON_SELECTION_</tspan><tspan class="cls-23" x="130.7" y="0">V</tspan><tspan x="139" y="0">ALUE: int</tspan></text><text class="cls-36" transform="translate(43.75 1431.5)"><tspan x="0" y="0">-UNDEFINED_INDEX: int</tspan></text><text class="cls-36" transform="translate(43.75 1449.11)"><tspan x="0" y="0">-</tspan><tspan class="cls-23" x="4.66" y="0">A</tspan><tspan x="12.96" y="0">T</tspan><tspan class="cls-23" x="21.51" y="0">T</tspan><tspan x="29.03" y="0">ACK_RANK_INDEX: int</tspan></text><text class="cls-36" transform="translate(43.75 1466.72)"><tspan x="0" y="0">-DEFENCE_RANK_INDEX: int</tspan></text><text class="cls-36" transform="translate(43.75 1484.33)"><tspan x="0" y="0">-random:</tspan><tspan class="cls-139" x="56.02" y="0"> </tspan><tspan x="61.53" y="0">random</tspan></text><text class="cls-36" transform="translate(43.75 1501.94)"><tspan x="0" y="0">-player</tspan><tspan class="cls-111" x="42.79" y="0">T</tspan><tspan x="49.79" y="0">eams:</tspan><tspan class="cls-123" x="87.92" y="0"> </tspan><tspan x="95.65" y="0">String[]</tspan></text><text class="cls-36" transform="translate(43.75 1519.55)"><tspan x="0" y="0">-pileLocations:</tspan><tspan class="cls-92" x="90.28" y="0"> </tspan><tspan x="97.29" y="0">Location[]</tspan></text><text class="cls-36" transform="translate(43.75 1537.16)"><tspan x="0" y="0">-pileStatusLocations:</tspan><tspan class="cls-104" x="129.96" y="0"> </tspan><tspan x="137.29" y="0">Location[]</tspan></text><text class="cls-36" transform="translate(43.75 1554.77)"><tspan x="0" y="0">-piles:</tspan><tspan class="cls-151" x="37.34" y="0"> </tspan><tspan x="41.75" y="0">Hand[]</tspan></text><text class="cls-36" transform="translate(43.75 1572.38)"><tspan x="0" y="0">-selectedPileIndex:</tspan><tspan class="cls-85" x="118.29" y="0"> </tspan><tspan x="122.21" y="0">int</tspan></text><text class="cls-36" transform="translate(43.75 1589.99)"><tspan x="0" y="0">-pile</tspan><tspan class="cls-111" x="26.46" y="0">T</tspan><tspan x="33.46" y="0">extActors:</tspan><tspan class="cls-129" x="95.7" y="0"> </tspan><tspan x="102.54" y="0">Actor[]</tspan></text><text class="cls-36" transform="translate(43.75 1607.6)"><tspan x="0" y="0">-usedCards:</tspan><tspan class="cls-2" x="76.25" y="0"> </tspan><tspan x="83.07" y="0">ArrayList&lt;Card&gt;</tspan></text><line class="cls-8" x1="38.75" y1="1614.67" x2="286.75" y2="1614.67"/><text class="cls-36" transform="translate(43.75 1633.21)"><tspan x="0" y="0">+resetPile(Deck):</tspan><tspan class="cls-1" x="107.75" y="0"> </tspan><tspan x="113.32" y="0">void</tspan></text><text class="cls-36" transform="translate(43.75 1650.81)"><tspan x="0" y="0">~get</tspan><tspan class="cls-111" x="27.64" y="0">T</tspan><tspan x="34.64" y="0">eamPileIdx(int):</tspan><tspan class="cls-43" x="131.89" y="0"> </tspan><tspan x="137.21" y="0">int</tspan></text><text class="cls-36" transform="translate(43.75 1668.42)"><tspan x="0" y="0">~select</tspan><tspan class="cls-111" x="44.75" y="0">T</tspan><tspan x="51.75" y="0">eamPile(int):</tspan><tspan class="cls-58" x="130.33" y="0"> </tspan><tspan x="137.32" y="0">void</tspan></text><text class="cls-36" transform="translate(43.75 1686.03)"><tspan x="0" y="0">~selectPile(int):</tspan><tspan class="cls-89" x="96.09" y="0"> </tspan><tspan x="101.32" y="0">void</tspan></text><text class="cls-36" transform="translate(43.75 1703.64)"><tspan x="0" y="0">~selectRandomPile():</tspan><tspan class="cls-64" x="134.22" y="0"> </tspan><tspan x="139.32" y="0">void</tspan></text><text class="cls-36" transform="translate(43.75 1721.25)"><tspan x="0" y="0">~waitForPileSelection():</tspan><tspan class="cls-64" x="148.22" y="0"> </tspan><tspan x="153.32" y="0">void</tspan></text><text class="cls-36" transform="translate(43.75 1738.86)"><tspan x="0" y="0">~calculatePileRanks(int):</tspan><tspan class="cls-86" x="154.46" y="0"> </tspan><tspan x="160.43" y="0">int[]</tspan></text><text class="cls-36" transform="translate(43.75 1756.47)"><tspan x="0" y="0">~updatePileRankState(int,int,int):</tspan><tspan class="cls-90" x="205.06" y="0"> </tspan><tspan x="212.32" y="0">void</tspan></text><text class="cls-36" transform="translate(43.75 1774.08)"><tspan x="0" y="0">~updatePileRanks():</tspan><tspan class="cls-161" x="127.24" y="0"> </tspan><tspan x="133.32" y="0">void</tspan></text><text class="cls-36" transform="translate(43.75 1791.69)"><tspan x="0" y="0">~initPile</tspan><tspan class="cls-111" x="49.42" y="0">T</tspan><tspan x="56.42" y="0">extActors(String):</tspan><tspan class="cls-69" x="164.55" y="0"> </tspan><tspan x="171.32" y="0">void</tspan></text><text class="cls-36" transform="translate(43.75 1809.3)"><tspan x="0" y="0">~transferCard</tspan><tspan class="cls-111" x="85.98" y="0">T</tspan><tspan x="92.98" y="0">oPile(Card):</tspan><tspan class="cls-24" x="167.67" y="0"> </tspan><tspan x="177.32" y="0">void</tspan></text><text class="cls-36" transform="translate(43.75 1826.91)"><tspan x="0" y="0">+getPiles():</tspan><tspan class="cls-52" x="71.2" y="0"> </tspan><tspan x="75.75" y="0">Hand[]</tspan></text><text class="cls-36" transform="translate(43.75 1844.52)"><tspan x="0" y="0">+getSelectedPile():</tspan><tspan class="cls-109" x="118.68" y="0"> </tspan><tspan x="123.53" y="0">Hand</tspan></text><text class="cls-36" transform="translate(43.75 1862.13)"><tspan x="0" y="0">+getSelectedPile(int):</tspan><tspan class="cls-55" x="133.46" y="0"> </tspan><tspan x="138.53" y="0">Hand</tspan></text><text class="cls-36" transform="translate(43.75 1879.74)"><tspan x="0" y="0">+getPileLocations():</tspan><tspan class="cls-30" x="124.13" y="0"> </tspan><tspan x="131.29" y="0">Location[]</tspan></text><text class="cls-36" transform="translate(43.75 1897.35)"><tspan x="0" y="0">+getPileStatusLocations():</tspan><tspan class="cls-138" x="163.82" y="0"> </tspan><tspan x="171.29" y="0">Location[]</tspan></text><text class="cls-36" transform="translate(43.75 1914.96)"><tspan x="0" y="0">+getSelectedPileIndex():</tspan><tspan class="cls-33" x="152.93" y="0"> </tspan><tspan x="157.21" y="0">int</tspan></text><text class="cls-36" transform="translate(43.75 1932.56)"><tspan x="0" y="0">+getUsedCards():</tspan><tspan class="cls-78" x="110.88" y="0"> </tspan><tspan x="117.07" y="0">ArrayList&lt;Card&gt;</tspan></text><text class="cls-36" transform="translate(43.75 1950.17)"><tspan x="0" y="0">+get</tspan><tspan class="cls-23" x="27.64" y="0">A</tspan><tspan x="35.94" y="0">T</tspan><tspan class="cls-23" x="44.49" y="0">T</tspan><tspan x="52" y="0">ACK_RANK_INDEX(): int</tspan></text><text class="cls-36" transform="translate(43.75 1967.78)"><tspan x="0" y="0">+getDEFENCE_RANK_INDEX(): int</tspan></text></g><g id="elem_thrones.game.BrokeRuleException"><rect id="thrones.game.BrokeRuleException" class="cls-12" x="697.25" y="2445.75" width="159" height="48" rx="2.5" ry="2.5"/><circle class="cls-11" cx="712.25" cy="2461.75" r="11"/><path d="M714.25,2458.25c.14-.33,.28-.58,.44-.75s.32-.25,.5-.25c.31,0,.57,.09,.77,.28s.3,.5,.3,.94v1.56c0,.44-.09,.75-.28,.94-.19,.19-.43,.28-.72,.28-.26,0-.47-.06-.64-.17s-.29-.32-.36-.62c-.03-.21-.1-.37-.22-.48-.21-.22-.5-.39-.88-.52-.38-.14-.75-.2-1.12-.2-.47,0-.9,.09-1.3,.28-.39,.19-.73,.49-1.03,.91s-.45,.91-.45,1.48v.92c0,.69,.28,1.26,.84,1.72,.56,.46,1.34,.69,2.34,.69,.59,0,1.1-.07,1.52-.2,.24-.07,.49-.23,.77-.47,.18-.14,.31-.22,.41-.27s.2-.06,.31-.06c.22,0,.41,.09,.56,.27,.17,.17,.25,.37,.25,.61s-.11,.48-.34,.75c-.33,.4-.77,.7-1.3,.92-.7,.3-1.47,.45-2.33,.45-1,0-1.9-.2-2.7-.59-.65-.31-1.2-.81-1.66-1.48-.45-.68-.67-1.42-.67-2.22v-1.09c0-.83,.2-1.61,.59-2.34,.41-.73,.96-1.29,1.66-1.67,.71-.4,1.46-.59,2.25-.59,.48,0,.93,.08,1.34,.25,.42,.17,.8,.42,1.16,.75Z"/><text class="cls-36" transform="translate(726.25 2467.48)"><tspan x="0" y="0">BrokeRuleException</tspan></text><line class="cls-8" x1="698.25" y1="2477.75" x2="855.25" y2="2477.75"/><line class="cls-8" x1="698.25" y1="2485.75" x2="855.25" y2="2485.75"/></g><g id="elem_thrones.game.HeartStartRule"><rect id="thrones.game.HeartStartRule" class="cls-12" x="448.43" y="2696.92" width="252" height="65.61" rx="2.5" ry="2.5"/><circle class="cls-11" cx="523.68" cy="2712.92" r="11"/><path d="M525.68,2709.42c.14-.33,.28-.58,.44-.75s.32-.25,.5-.25c.31,0,.57,.09,.77,.28,.2,.19,.3,.5,.3,.94v1.56c0,.44-.09,.75-.28,.94-.19,.19-.43,.28-.72,.28-.26,0-.47-.06-.64-.17s-.29-.32-.36-.62c-.03-.21-.1-.37-.22-.48-.21-.22-.5-.39-.88-.52-.38-.14-.75-.2-1.12-.2-.47,0-.9,.09-1.3,.28-.39,.19-.73,.49-1.03,.91-.3,.42-.45,.91-.45,1.48v.92c0,.69,.28,1.26,.84,1.72,.56,.46,1.34,.69,2.34,.69,.59,0,1.1-.07,1.52-.2,.24-.07,.49-.23,.77-.47,.18-.14,.31-.22,.41-.27s.2-.06,.31-.06c.22,0,.41,.09,.56,.27,.17,.17,.25,.37,.25,.61s-.11,.48-.34,.75c-.33,.4-.77,.7-1.3,.92-.7,.3-1.47,.45-2.33,.45-1,0-1.9-.2-2.7-.59-.65-.31-1.2-.81-1.66-1.48-.45-.68-.67-1.42-.67-2.22v-1.09c0-.83,.2-1.61,.59-2.34,.41-.73,.96-1.29,1.66-1.67,.71-.4,1.46-.59,2.25-.59,.48,0,.93,.08,1.34,.25,.42,.17,.8,.42,1.16,.75Z"/><text class="cls-36" transform="translate(544.18 2718.65)"><tspan class="cls-165" x="0" y="0">HeartStartRul</tspan><tspan x="85.21" y="0">e</tspan></text><line class="cls-8" x1="449.43" y1="2728.92" x2="699.43" y2="2728.92"/><line class="cls-8" x1="449.43" y1="2736.92" x2="699.43" y2="2736.92"/><text class="cls-36" transform="translate(454.43 2755.45)"><tspan x="0" y="0">+check</tspan><tspan class="cls-23" x="44.75" y="0">V</tspan><tspan x="53.05" y="0">alidMove(Suit,Hand):</tspan><tspan class="cls-132" x="183.77" y="0"> </tspan><tspan x="190.17" y="0">boolean</tspan></text></g><g id="elem_thrones.game.PlayerFactory"><rect id="thrones.game.PlayerFactory" class="cls-12" x="1124.25" y="954.25" width="435" height="118.44" rx="2.5" ry="2.5"/><circle class="cls-11" cx="1293.5" cy="970.25" r="11"/><path d="M1295.5,966.75c.14-.33,.28-.58,.44-.75s.32-.25,.5-.25c.31,0,.57,.09,.77,.28,.2,.19,.3,.5,.3,.94v1.56c0,.44-.09,.75-.28,.94-.19,.19-.43,.28-.72,.28-.26,0-.47-.06-.64-.17s-.29-.32-.36-.62c-.03-.21-.1-.37-.22-.48-.21-.22-.5-.39-.88-.52-.38-.14-.75-.2-1.12-.2-.47,0-.9,.09-1.3,.28-.39,.19-.73,.49-1.03,.91s-.45,.91-.45,1.48v.92c0,.69,.28,1.26,.84,1.72s1.34,.69,2.34,.69c.59,0,1.1-.07,1.52-.2,.24-.07,.49-.23,.77-.47,.18-.14,.31-.22,.41-.27s.2-.06,.31-.06c.22,0,.41,.09,.56,.27,.17,.17,.25,.37,.25,.61s-.11,.48-.34,.75c-.33,.4-.77,.7-1.3,.92-.7,.3-1.47,.45-2.33,.45-1,0-1.9-.2-2.7-.59-.65-.31-1.2-.81-1.66-1.48-.45-.68-.67-1.42-.67-2.22v-1.09c0-.83,.2-1.61,.59-2.34,.41-.73,.96-1.29,1.66-1.67,.71-.4,1.46-.59,2.25-.59,.48,0,.93,.08,1.34,.25s.8,.42,1.16,.75Z"/><text class="cls-36" transform="translate(1314 975.98)"><tspan class="cls-63" x="0" y="0">PlayerFactor</tspan><tspan x="81" y="0">y</tspan></text><line class="cls-8" x1="1125.25" y1="986.25" x2="1558.25" y2="986.25"/><text class="cls-36" transform="translate(1130.25 1004.78)"><tspan x="0" y="0">+nbStartCards:</tspan><tspan class="cls-71" x="94.55" y="0"> </tspan><tspan x="100.21" y="0">int</tspan></text><text class="cls-36" transform="translate(1130.25 1022.39)"><tspan x="0" y="0">~player</tspan><tspan class="cls-155" x="46.31" y="0">T</tspan><tspan x="54.09" y="0">ype:</tspan><tspan class="cls-127" x="80.55" y="0"> </tspan><tspan x="88.97" y="0">Player</tspan><tspan class="cls-155" x="128.65" y="0">T</tspan><tspan x="136.43" y="0">ype</tspan></text><line class="cls-8" x1="1125.25" y1="1029.47" x2="1558.25" y2="1029.47"/><text class="cls-36" transform="translate(1130.25 1048)"><tspan x="0" y="0">+setUpPlayers(ArrayList&lt;Player</tspan><tspan class="cls-155" x="199.19" y="0">T</tspan><tspan x="206.96" y="0">ype&gt;,RuleChecke</tspan><tspan class="cls-155" x="317.86" y="0">r</tspan><tspan x="321.75" y="0">,Deck):</tspan><tspan class="cls-32" x="366.09" y="0"> </tspan><tspan x="375.54" y="0">Player[]</tspan></text><text class="cls-36" transform="translate(1130.25 1065.61)"><tspan x="0" y="0">+getPlayer(Player</tspan><tspan class="cls-155" x="111.67" y="0">T</tspan><tspan x="119.44" y="0">ype,RuleChecke</tspan><tspan class="cls-155" x="222.17" y="0">r</tspan><tspan x="226.06" y="0">,int):</tspan><tspan class="cls-162" x="253.29" y="0"> </tspan><tspan x="267.32" y="0">Player</tspan></text></g><g id="elem_thrones.game.PlayerType"><rect id="thrones.game.PlayerType" class="cls-12" x="869.75" y="954.25" width="104" height="118.44" rx="2.5" ry="2.5"/><circle class="cls-14" cx="884.75" cy="970.25" r="11"/><path d="M883.25,971.25v2h4v-1.48l.62-.52h.75l.62,.52v3.48h-8.48l-.52-.62v-.75l.52-.62h.48v-6h-.48l-.52-.62v-.75l.52-.62h8.48v3.48l-.62,.52h-.75l-.62-.52v-1.48h-4v2h1v-.48h0l.62-.52h.75l.62,.52v2.97l-.62,.52h-.75l-.62-.52h0v-.48h-1Z"/><text class="cls-36" transform="translate(898.75 975.98)"><tspan class="cls-51" x="0" y="0">Player</tspan><tspan class="cls-125" x="40.99" y="0">T</tspan><tspan class="cls-57" x="48.99" y="0">yp</tspan><tspan x="64.21" y="0">e</tspan></text><line class="cls-8" x1="870.75" y1="986.25" x2="972.75" y2="986.25"/><text class="cls-36" transform="translate(875.75 1004.78)"><tspan x="0" y="0">+human</tspan></text><text class="cls-36" transform="translate(875.75 1022.39)"><tspan class="cls-94" x="0" y="0">+rando</tspan><tspan x="44.34" y="0">m</tspan></text><text class="cls-36" transform="translate(875.75 1040)"><tspan x="0" y="0">+simple</tspan></text><text class="cls-36" transform="translate(875.75 1057.61)"><tspan x="0" y="0">+smart</tspan></text><line class="cls-8" x1="870.75" y1="1064.69" x2="972.75" y2="1064.69"/></g><g id="elem_thrones.game.ScoreCalculator"><rect id="thrones.game.ScoreCalculator" class="cls-12" x="25.25" y="910.25" width="263" height="206.48" rx="2.5" ry="2.5"/><circle class="cls-11" cx="102" cy="926.25" r="11"/><path d="M104,922.75c.14-.33,.28-.58,.44-.75s.32-.25,.5-.25c.31,0,.57,.09,.77,.28,.2,.19,.3,.5,.3,.94v1.56c0,.44-.09,.75-.28,.94-.19,.19-.43,.28-.72,.28-.26,0-.47-.06-.64-.17-.17-.11-.29-.32-.36-.62-.03-.21-.1-.37-.22-.48-.21-.22-.5-.39-.88-.52-.38-.14-.75-.2-1.12-.2-.47,0-.9,.09-1.3,.28-.39,.19-.73,.49-1.03,.91-.3,.42-.45,.91-.45,1.48v.92c0,.69,.28,1.26,.84,1.72,.56,.46,1.34,.69,2.34,.69,.59,0,1.1-.07,1.52-.2,.24-.07,.49-.23,.77-.47,.18-.14,.31-.22,.41-.27s.2-.06,.31-.06c.22,0,.41,.09,.56,.27,.17,.17,.25,.37,.25,.61s-.11,.48-.34,.75c-.33,.4-.77,.7-1.3,.92-.7,.3-1.47,.45-2.33,.45-1,0-1.9-.2-2.7-.59-.65-.31-1.2-.81-1.66-1.48-.45-.68-.67-1.42-.67-2.22v-1.09c0-.83,.2-1.61,.59-2.34,.41-.73,.96-1.29,1.66-1.67,.71-.4,1.46-.59,2.25-.59,.48,0,.93,.08,1.34,.25,.42,.17,.8,.42,1.16,.75Z"/><text class="cls-36" transform="translate(122.5 931.98)"><tspan class="cls-134" x="0" y="0">ScoreCalculato</tspan><tspan x="96.34" y="0">r</tspan></text><line class="cls-8" x1="26.25" y1="942.25" x2="287.25" y2="942.25"/><text class="cls-36" transform="translate(31.25 960.78)"><tspan x="0" y="0">-DOUBLE: int</tspan></text><text class="cls-36" transform="translate(31.25 978.39)"><tspan x="0" y="0">-</tspan><tspan class="cls-23" x="4.66" y="0">A</tspan><tspan x="12.96" y="0">T</tspan><tspan class="cls-23" x="21.51" y="0">T</tspan><tspan x="29.03" y="0">ACK_RANK_INDEX: int</tspan></text><text class="cls-36" transform="translate(31.25 996)"><tspan x="0" y="0">-DEFENCE_RANK_INDEX: int</tspan></text><line class="cls-8" x1="26.25" y1="1003.08" x2="287.25" y2="1003.08"/><text class="cls-36" transform="translate(31.25 1021.61)"><tspan x="0" y="0">+calculate(Hand):</tspan><tspan class="cls-43" x="110.11" y="0"> </tspan><tspan x="115.43" y="0">int[]</tspan></text><text class="cls-36" transform="translate(31.25 1039.22)"><tspan x="0" y="0">-rankMultiplier(int[],int[]):</tspan><tspan class="cls-45" x="150.14" y="0"> </tspan><tspan x="157.43" y="0">int[]</tspan></text><text class="cls-36" transform="translate(31.25 1056.83)"><tspan x="0" y="0">-characterCardRank(Card):</tspan><tspan class="cls-98" x="169.61" y="0"> </tspan><tspan x="178.43" y="0">int[]</tspan></text><text class="cls-36" transform="translate(31.25 1074.44)"><tspan x="0" y="0">-attackDefenceCardRank(Card,int):</tspan><tspan class="cls-113" x="219.42" y="0"> </tspan><tspan x="228.43" y="0">int[]</tspan></text><text class="cls-36" transform="translate(31.25 1092.05)"><tspan x="0" y="0">-magicCardRank(Card,int[]):</tspan><tspan class="cls-93" x="175.05" y="0"> </tspan><tspan x="182.43" y="0">int[]</tspan></text><text class="cls-36" transform="translate(31.25 1109.66)"><tspan x="0" y="0">-addRanks(int[],int[]):</tspan><tspan class="cls-41" x="129.94" y="0"> </tspan><tspan x="137.43" y="0">int[]</tspan></text></g><g id="elem_thrones.game.Player"><rect id="thrones.game.Player" class="cls-12" x="1542.25" y="1477.75" width="319" height="364.97" rx="2.5" ry="2.5"/><circle class="cls-11" cx="1677.5" cy="1493.75" r="11"/><path d="M1679.5,1490.25c.14-.33,.28-.58,.44-.75s.32-.25,.5-.25c.31,0,.57,.09,.77,.28s.3,.5,.3,.94v1.56c0,.44-.09,.75-.28,.94s-.43,.28-.72,.28c-.26,0-.47-.06-.64-.17s-.29-.32-.36-.62c-.03-.21-.1-.37-.22-.48-.21-.22-.5-.39-.88-.52-.38-.14-.75-.2-1.12-.2-.47,0-.9,.09-1.3,.28-.39,.19-.73,.49-1.03,.91s-.45,.91-.45,1.48v.92c0,.69,.28,1.26,.84,1.72s1.34,.69,2.34,.69c.59,0,1.1-.07,1.52-.2,.24-.07,.49-.23,.77-.47,.18-.14,.31-.22,.41-.27s.2-.06,.31-.06c.22,0,.41,.09,.56,.27,.17,.17,.25,.37,.25,.61s-.11,.48-.34,.75c-.33,.4-.77,.7-1.3,.92-.7,.3-1.47,.45-2.33,.45-1,0-1.9-.2-2.7-.59-.65-.31-1.2-.81-1.66-1.48-.45-.68-.67-1.42-.67-2.22v-1.09c0-.83,.2-1.61,.59-2.34,.41-.73,.96-1.29,1.66-1.67,.71-.4,1.46-.59,2.25-.59,.48,0,.93,.08,1.34,.25s.8,.42,1.16,.75Z"/><text class="cls-36" transform="translate(1698 1499.48)"><tspan class="cls-67" x="0" y="0">Playe</tspan><tspan x="35.34" y="0">r</tspan></text><line class="cls-8" x1="1543.25" y1="1509.75" x2="1860.25" y2="1509.75"/><text class="cls-36" transform="translate(1548.25 1528.28)"><tspan x="0" y="0">-NON_SELECTION_</tspan><tspan class="cls-23" x="130.7" y="0">V</tspan><tspan x="139" y="0">ALUE: int</tspan></text><text class="cls-36" transform="translate(1548.25 1545.89)"><tspan x="0" y="0">-playerIdx: int</tspan></text><text class="cls-36" transform="translate(1548.25 1563.5)"><tspan x="0" y="0">-hand:</tspan><tspan class="cls-49" x="39.7" y="0"> </tspan><tspan x="44.53" y="0">Hand</tspan></text><text class="cls-36" transform="translate(1548.25 1581.11)"><tspan x="0" y="0">-Optional&lt;Card&gt;</tspan><tspan class="cls-20" x="103.5" y="0"> </tspan><tspan x="109.86" y="0">selected</tspan></text><text class="cls-36" transform="translate(1548.25 1598.72)"><tspan x="0" y="0">-int selectedPileIndex</tspan></text><line class="cls-8" x1="1543.25" y1="1605.8" x2="1860.25" y2="1605.8"/><text class="cls-36" transform="translate(1548.25 1624.33)"><tspan class="cls-137" x="0" y="0">+displaySelected(CardGame):voi</tspan><tspan x="208.21" y="0">d</tspan></text><text class="cls-36" transform="translate(1548.25 1641.94)"><tspan x="0" y="0">+display</tspan><tspan class="cls-146" x="51.75" y="0">T</tspan><tspan x="59.79" y="0">urnStart(CardGame,boolean):</tspan><tspan class="cls-26" x="244.99" y="0"> </tspan><tspan x="254.32" y="0">void</tspan></text><text class="cls-36" transform="translate(1548.25 1659.55)"><tspan x="0" y="0">+isLegalMove(</tspan><tspan class="cls-111" x="91.44" y="0">T</tspan><tspan x="98.44" y="0">ablePile):</tspan><tspan class="cls-53" x="156.8" y="0"> </tspan><tspan x="165.17" y="0">boolean</tspan></text><text class="cls-36" transform="translate(1548.25 1677.16)"><tspan x="0" y="0">+makeMove(CardGame,</tspan><tspan class="cls-111" x="153.67" y="0">T</tspan><tspan x="160.67" y="0">ablePile,boolean):</tspan><tspan class="cls-88" x="272.75" y="0"> </tspan><tspan x="281.32" y="0">void</tspan></text><text class="cls-36" transform="translate(1548.25 1694.77)"><tspan x="0" y="0">+pickACorrectSuit(boolean):</tspan><tspan class="cls-160" x="175.47" y="0"> </tspan><tspan x="182.32" y="0">void</tspan></text><text class="cls-36" transform="translate(1548.25 1712.38)"><tspan x="0" y="0">+selectPile(</tspan><tspan class="cls-111" x="72.75" y="0">T</tspan><tspan x="79.75" y="0">ablePile,boolean):</tspan><tspan class="cls-107" x="191.84" y="0"> </tspan><tspan x="200.32" y="0">void</tspan></text><text class="cls-36" transform="translate(1548.25 1729.99)"><tspan x="0" y="0">+Hand</tspan><tspan class="cls-117" x="41.64" y="0"> </tspan><tspan x="45.75" y="0">getHand()</tspan></text><text class="cls-36" transform="translate(1548.25 1747.6)"><tspan x="0" y="0">+getSelected():</tspan><tspan class="cls-114" x="95.33" y="0"> </tspan><tspan x="102.16" y="0">Optional&lt;Card&gt;</tspan></text><text class="cls-36" transform="translate(1548.25 1765.21)"><tspan x="0" y="0">+getSelectedPileIndex():</tspan><tspan class="cls-33" x="152.93" y="0"> </tspan><tspan x="157.21" y="0">int</tspan></text><text class="cls-36" transform="translate(1548.25 1782.81)"><tspan x="0" y="0">+getPlayerIdx():</tspan><tspan class="cls-115" x="99.21" y="0"> </tspan><tspan x="103.21" y="0">int</tspan></text><text class="cls-36" transform="translate(1548.25 1800.42)"><tspan x="0" y="0">+setHand(Hand):</tspan><tspan class="cls-77" x="107" y="0"> </tspan><tspan x="111.32" y="0">void</tspan></text><text class="cls-36" transform="translate(1548.25 1818.03)"><tspan x="0" y="0">+setSelected(Optional&lt;Card&gt;):</tspan><tspan class="cls-18" x="193.39" y="0"> </tspan><tspan x="200.32" y="0">void</tspan></text><text class="cls-36" transform="translate(1548.25 1835.64)"><tspan x="0" y="0">+setSelectedPileIndex(int):</tspan><tspan class="cls-110" x="166.93" y="0"> </tspan><tspan x="171.32" y="0">void</tspan></text></g><g id="elem_thrones.game.RandomAi"><rect id="thrones.game.RandomAi" class="cls-12" x="1956.25" y="2436.75" width="319" height="65.61" rx="2.5" ry="2.5"/><circle class="cls-11" cx="2079" cy="2452.75" r="11"/><path d="M2081,2449.25c.14-.33,.28-.58,.44-.75s.32-.25,.5-.25c.31,0,.57,.09,.77,.28s.3,.5,.3,.94v1.56c0,.44-.09,.75-.28,.94s-.43,.28-.72,.28c-.26,0-.47-.06-.64-.17s-.29-.32-.36-.62c-.03-.21-.1-.37-.22-.48-.21-.22-.5-.39-.88-.52-.38-.14-.75-.2-1.12-.2-.47,0-.9,.09-1.3,.28-.39,.19-.73,.49-1.03,.91s-.45,.91-.45,1.48v.92c0,.69,.28,1.26,.84,1.72s1.34,.69,2.34,.69c.59,0,1.1-.07,1.52-.2,.24-.07,.49-.23,.77-.47,.18-.14,.31-.22,.41-.27s.2-.06,.31-.06c.22,0,.41,.09,.56,.27,.17,.17,.25,.37,.25,.61s-.11,.48-.34,.75c-.33,.4-.77,.7-1.3,.92-.7,.3-1.47,.45-2.33,.45-1,0-1.9-.2-2.7-.59-.65-.31-1.2-.81-1.66-1.48-.45-.68-.67-1.42-.67-2.22v-1.09c0-.83,.2-1.61,.59-2.34,.41-.73,.96-1.29,1.66-1.67,.71-.4,1.46-.59,2.25-.59,.48,0,.93,.08,1.34,.25s.8,.42,1.16,.75Z"/><text class="cls-36" transform="translate(2099.5 2458.48)"><tspan x="0" y="0">RandomAi</tspan></text><line class="cls-8" x1="1957.25" y1="2468.75" x2="2274.25" y2="2468.75"/><line class="cls-8" x1="1957.25" y1="2476.75" x2="2274.25" y2="2476.75"/><text class="cls-36" transform="translate(1962.25 2495.28)"><tspan x="0" y="0">+makeMove(CardGame,</tspan><tspan class="cls-111" x="153.67" y="0">T</tspan><tspan x="160.67" y="0">ablePile,boolean):</tspan><tspan class="cls-88" x="272.75" y="0"> </tspan><tspan x="281.32" y="0">void</tspan></text></g><g id="elem_thrones.game.SmartAi"><rect id="thrones.game.SmartAi" class="cls-12" x="1006.25" y="2392.75" width="331" height="153.66" rx="2.5" ry="2.5"/><circle class="cls-11" cx="1143" cy="2408.75" r="11"/><path d="M1145,2405.25c.14-.33,.28-.58,.44-.75s.32-.25,.5-.25c.31,0,.57,.09,.77,.28s.3,.5,.3,.94v1.56c0,.44-.09,.75-.28,.94s-.43,.28-.72,.28c-.26,0-.47-.06-.64-.17s-.29-.32-.36-.62c-.03-.21-.1-.37-.22-.48-.21-.22-.5-.39-.88-.52-.38-.14-.75-.2-1.12-.2-.47,0-.9,.09-1.3,.28-.39,.19-.73,.49-1.03,.91s-.45,.91-.45,1.48v.92c0,.69,.28,1.26,.84,1.72s1.34,.69,2.34,.69c.59,0,1.1-.07,1.52-.2,.24-.07,.49-.23,.77-.47,.18-.14,.31-.22,.41-.27s.2-.06,.31-.06c.22,0,.41,.09,.56,.27,.17,.17,.25,.37,.25,.61s-.11,.48-.34,.75c-.33,.4-.77,.7-1.3,.92-.7,.3-1.47,.45-2.33,.45-1,0-1.9-.2-2.7-.59-.65-.31-1.2-.81-1.66-1.48-.45-.68-.67-1.42-.67-2.22v-1.09c0-.83,.2-1.61,.59-2.34,.41-.73,.96-1.29,1.66-1.67,.71-.4,1.46-.59,2.25-.59,.48,0,.93,.08,1.34,.25s.8,.42,1.16,.75Z"/><text class="cls-36" transform="translate(1163.5 2414.48)"><tspan x="0" y="0">SmartAi</tspan></text><line class="cls-8" x1="1007.25" y1="2424.75" x2="1336.25" y2="2424.75"/><text class="cls-36" transform="translate(1012.25 2443.28)"><tspan x="0" y="0">~safeRanks:</tspan><tspan class="cls-83" x="78.21" y="0"> </tspan><tspan x="85.27" y="0">ArrayList&lt;GoTCards.Rank&gt;</tspan></text><text class="cls-36" transform="translate(1012.25 2460.89)"><tspan x="0" y="0">~first:</tspan><tspan class="cls-29" x="34.62" y="0"> </tspan><tspan x="40.17" y="0">boolean</tspan></text><line class="cls-8" x1="1007.25" y1="2467.97" x2="1336.25" y2="2467.97"/><text class="cls-36" transform="translate(1012.25 2486.5)"><tspan x="0" y="0">+makeMove(CardGame,</tspan><tspan class="cls-111" x="153.67" y="0">T</tspan><tspan x="160.67" y="0">ablePile,boolean):</tspan><tspan class="cls-88" x="272.75" y="0"> </tspan><tspan x="281.32" y="0">void</tspan></text><text class="cls-36" transform="translate(1012.25 2504.11)"><tspan x="0" y="0">-chekcChangesBattleOutcome(</tspan><tspan class="cls-111" x="194.54" y="0">T</tspan><tspan x="201.54" y="0">ablePile,Card):</tspan><tspan class="cls-81" x="294.14" y="0"> </tspan><tspan x="304.21" y="0">int</tspan></text><text class="cls-36" transform="translate(1012.25 2521.72)"><tspan x="0" y="0">-countWins(</tspan><tspan class="cls-111" x="74.68" y="0">T</tspan><tspan x="81.68" y="0">ablePile,int[],int[]):</tspan><tspan class="cls-141" x="192.96" y="0"> </tspan><tspan x="202.21" y="0">int</tspan></text><text class="cls-36" transform="translate(1012.25 2539.33)"><tspan x="0" y="0">-updateSafeRanks(</tspan><tspan class="cls-111" x="120.63" y="0">T</tspan><tspan x="127.63" y="0">ablePile,boolean):</tspan><tspan class="cls-16" x="239.71" y="0"> </tspan><tspan x="250.32" y="0">void</tspan></text></g><g id="elem_thrones.game.GoTCards.GoTCards"><rect id="thrones.game.GoTCards.GoTCards" class="cls-12" x="1741.75" y="544.75" width="238" height="136.05" rx="2.5" ry="2.5"/><circle class="cls-11" cx="1823.5" cy="560.75" r="11"/><path d="M1825.5,557.25c.14-.33,.28-.58,.44-.75s.32-.25,.5-.25c.31,0,.57,.09,.77,.28,.2,.19,.3,.5,.3,.94v1.56c0,.44-.09,.75-.28,.94-.19,.19-.43,.28-.72,.28-.26,0-.47-.06-.64-.17s-.29-.32-.36-.62c-.03-.21-.1-.37-.22-.48-.21-.22-.5-.39-.88-.52-.38-.14-.75-.2-1.12-.2-.47,0-.9,.09-1.3,.28-.39,.19-.73,.49-1.03,.91s-.45,.91-.45,1.48v.92c0,.69,.28,1.26,.84,1.72s1.34,.69,2.34,.69c.59,0,1.1-.07,1.52-.2,.24-.07,.49-.23,.77-.47,.18-.14,.31-.22,.41-.27s.2-.06,.31-.06c.22,0,.41,.09,.56,.27,.17,.17,.25,.37,.25,.61s-.11,.48-.34,.75c-.33,.4-.77,.7-1.3,.92-.7,.3-1.47,.45-2.33,.45-1,0-1.9-.2-2.7-.59-.65-.31-1.2-.81-1.66-1.48-.45-.68-.67-1.42-.67-2.22v-1.09c0-.83,.2-1.61,.59-2.34,.41-.73,.96-1.29,1.66-1.67,.71-.4,1.46-.59,2.25-.59,.48,0,.93,.08,1.34,.25s.8,.42,1.16,.75Z"/><text class="cls-36" transform="translate(1844 566.48)"><tspan class="cls-19" x="0" y="0">GoTCard</tspan><tspan x="59" y="0">s</tspan></text><line class="cls-8" x1="1742.75" y1="576.75" x2="1978.75" y2="576.75"/><line class="cls-8" x1="1742.75" y1="584.75" x2="1978.75" y2="584.75"/><text class="cls-39" transform="translate(1747.75 603.28)"><tspan x="0" y="0">+canonical(GoTCards.Suit):</tspan><tspan class="cls-40" x="173.13" y="0"> </tspan><tspan x="180.43" y="0">String</tspan></text><text class="cls-39" transform="translate(1747.75 620.89)"><tspan x="0" y="0">+canonical(GoTCards.Rank):</tspan><tspan class="cls-50" x="181.69" y="0"> </tspan><tspan x="189.43" y="0">String</tspan></text><text class="cls-39" transform="translate(1747.75 638.5)"><tspan x="0" y="0">+canonical(Card):</tspan><tspan class="cls-91" x="110.89" y="0"> </tspan><tspan x="117.43" y="0">String</tspan></text><text class="cls-39" transform="translate(1747.75 656.11)"><tspan x="0" y="0">+canonical(Hand):</tspan><tspan class="cls-72" x="114.01" y="0"> </tspan><tspan x="119.43" y="0">String</tspan></text><text class="cls-39" transform="translate(1747.75 673.72)"><tspan x="0" y="0">+randomCard(Hand,Random):</tspan><tspan class="cls-102" x="189.48" y="0"> </tspan><tspan x="195.66" y="0">Card</tspan></text></g><g id="elem_thrones.game.GoTCards.GOTSuit"><rect id="thrones.game.GoTCards.GOTSuit" class="cls-12" x="2130.25" y="553.75" width="105" height="118.44" rx="2.5" ry="2.5"/><circle class="cls-14" cx="2153.35" cy="569.75" r="11"/><path d="M2151.85,570.75v2h4v-1.48l.62-.52h.75l.62,.52v3.48h-8.48l-.52-.62v-.75l.52-.62h.48v-6h-.48l-.52-.62v-.75l.52-.62h8.48v3.48l-.62,.52h-.75l-.62-.52v-1.48h-4v2h1v-.48h0l.62-.52h.75l.62,.52v2.97l-.62,.52h-.75l-.62-.52h0v-.48h-1Z"/><text class="cls-36" transform="translate(2169.15 575.48)"><tspan class="cls-99" x="0" y="0">GOTSui</tspan><tspan x="51.11" y="0">t</tspan></text><line class="cls-8" x1="2131.25" y1="585.75" x2="2234.25" y2="585.75"/><text class="cls-36" transform="translate(2136.25 604.28)"><tspan x="0" y="0">+CHARACTER</tspan></text><text class="cls-36" transform="translate(2136.25 621.89)"><tspan x="0" y="0">+DEFENCE</tspan></text><text class="cls-36" transform="translate(2136.25 639.5)"><tspan class="cls-46" x="0" y="0">+</tspan><tspan class="cls-103" x="8.46" y="0">A</tspan><tspan class="cls-48" x="17.03" y="0">T</tspan><tspan class="cls-103" x="25.86" y="0">T</tspan><tspan class="cls-46" x="33.66" y="0">AC</tspan><tspan x="53.66" y="0">K</tspan></text><text class="cls-36" transform="translate(2136.25 657.11)"><tspan x="0" y="0">+MAGIC</tspan></text><line class="cls-8" x1="2131.25" y1="664.19" x2="2234.25" y2="664.19"/></g><g id="elem_thrones.game.GoTCards.Suit"><rect id="thrones.game.GoTCards.Suit" class="cls-12" x="1751.75" y="910.25" width="192" height="206.48" rx="2.5" ry="2.5"/><circle class="cls-14" cx="1831.5" cy="926.25" r="11"/><path d="M1830,927.25v2h4v-1.48l.62-.52h.75l.62,.52v3.48h-8.48l-.52-.62v-.75l.52-.62h.48v-6h-.48l-.52-.62v-.75l.52-.62h8.48v3.48l-.62,.52h-.75l-.62-.52v-1.48h-4v2h1v-.48h0l.62-.52h.75l.62,.52v2.97l-.62,.52h-.75l-.62-.52h0v-.48h-1Z"/><text class="cls-36" transform="translate(1852 931.98)"><tspan x="0" y="0">Suit</tspan></text><line class="cls-8" x1="1752.75" y1="942.25" x2="1942.75" y2="942.25"/><text class="cls-36" transform="translate(1757.75 960.78)"><tspan x="0" y="0">+S</tspan><tspan class="cls-23" x="17.51" y="0">P</tspan><tspan x="25.81" y="0">ADES</tspan></text><text class="cls-36" transform="translate(1757.75 978.39)"><tspan x="0" y="0">+HEA</tspan><tspan class="cls-135" x="36.96" y="0">R</tspan><tspan x="46.82" y="0">TS</tspan></text><text class="cls-36" transform="translate(1757.75 996)"><tspan x="0" y="0">+DIAMONDS</tspan></text><text class="cls-36" transform="translate(1757.75 1013.61)"><tspan x="0" y="0">+CLUBS</tspan></text><text class="cls-36" transform="translate(1757.75 1031.22)"><tspan x="0" y="0">-gotsuit:</tspan><tspan class="cls-122" x="49.8" y="0"> </tspan><tspan x="57.08" y="0">GoTCards.GOTSuit</tspan></text><line class="cls-8" x1="1752.75" y1="1038.3" x2="1942.75" y2="1038.3"/><text class="cls-36" transform="translate(1757.75 1056.83)"><tspan x="0" y="0">+isDefence():</tspan><tspan class="cls-65" x="83.64" y="0"> </tspan><tspan x="90.17" y="0">boolean</tspan></text><text class="cls-36" transform="translate(1757.75 1074.44)"><tspan x="0" y="0">+isAttack():</tspan><tspan class="cls-130" x="70.4" y="0"> </tspan><tspan x="76.17" y="0">boolean</tspan></text><text class="cls-36" transform="translate(1757.75 1092.05)"><tspan x="0" y="0">+isCharacter():</tspan><tspan class="cls-145" x="92.97" y="0"> </tspan><tspan x="100.17" y="0">boolean</tspan></text><text class="cls-36" transform="translate(1757.75 1109.66)"><tspan x="0" y="0">+isMagic():</tspan><tspan class="cls-17" x="68.84" y="0"> </tspan><tspan x="74.17" y="0">boolean</tspan></text></g><g id="elem_thrones.game.GoTCards.Rank"><rect id="thrones.game.GoTCards.Rank" class="cls-12" x="2093.75" y="857.25" width="142" height="312.14" rx="2.5" ry="2.5"/><circle class="cls-14" cx="2144" cy="873.25" r="11"/><path d="M2142.5,874.25v2h4v-1.48l.62-.52h.75l.62,.52v3.48h-8.48l-.52-.62v-.75l.52-.62h.48v-6h-.48l-.52-.62v-.75l.52-.62h8.48v3.48l-.62,.52h-.75l-.62-.52v-1.48h-4v2h1v-.48h0l.62-.52h.75l.62,.52v2.97l-.62,.52h-.75l-.62-.52h0v-.48h-1Z"/><text class="cls-36" transform="translate(2164.5 878.98)"><tspan class="cls-128" x="0" y="0">Ran</tspan><tspan x="26" y="0">k</tspan></text><line class="cls-8" x1="2094.75" y1="889.25" x2="2234.75" y2="889.25"/><text class="cls-36" transform="translate(2099.75 907.78)"><tspan x="0" y="0">+ACE</tspan></text><text class="cls-36" transform="translate(2099.75 925.39)"><tspan x="0" y="0">+KING</tspan></text><text class="cls-36" transform="translate(2099.75 943)"><tspan x="0" y="0">+QUEEN</tspan></text><text class="cls-36" transform="translate(2099.75 960.61)"><tspan x="0" y="0">+JACK</tspan></text><text class="cls-36" transform="translate(2099.75 978.22)"><tspan x="0" y="0">+TEN</tspan></text><text class="cls-36" transform="translate(2099.75 995.83)"><tspan x="0" y="0">+NINE</tspan></text><text class="cls-36" transform="translate(2099.75 1013.44)"><tspan x="0" y="0">+EIGH</tspan><tspan class="cls-135" x="42.4" y="0">T</tspan></text><text class="cls-36" transform="translate(2099.75 1031.05)"><tspan x="0" y="0">+SEVEN</tspan></text><text class="cls-36" transform="translate(2099.75 1048.66)"><tspan x="0" y="0">+SIX</tspan></text><text class="cls-36" transform="translate(2099.75 1066.27)"><tspan x="0" y="0">+FIVE</tspan></text><text class="cls-36" transform="translate(2099.75 1083.88)"><tspan x="0" y="0">+FOUR</tspan></text><text class="cls-36" transform="translate(2099.75 1101.49)"><tspan x="0" y="0">+THREE</tspan></text><text class="cls-36" transform="translate(2099.75 1119.1)"><tspan class="cls-167" x="0" y="0">+TW</tspan><tspan x="30.11" y="0">O</tspan></text><text class="cls-36" transform="translate(2099.75 1136.71)"><tspan x="0" y="0">-rank</tspan><tspan class="cls-23" x="31.9" y="0">V</tspan><tspan x="40.2" y="0">alue:</tspan><tspan class="cls-74" x="70.55" y="0"> </tspan><tspan x="77.21" y="0">int</tspan></text><line class="cls-8" x1="2094.75" y1="1143.78" x2="2234.75" y2="1143.78"/><text class="cls-36" transform="translate(2099.75 1162.31)"><tspan x="0" y="0">+getRank</tspan><tspan class="cls-23" x="60.32" y="0">V</tspan><tspan x="68.62" y="0">alue():</tspan><tspan class="cls-27" x="108.3" y="0"> </tspan><tspan x="115.21" y="0">int</tspan></text></g><g id="elem_ch.aplu.jcardgame.Location"><rect id="ch.aplu.jcardgame.Location" class="cls-12" x="2583.75" y="44.75" width="86" height="48" rx="2.5" ry="2.5"/><circle class="cls-11" cx="2598.75" cy="60.75" r="11"/><path d="M2600.75,57.25c.14-.33,.28-.58,.44-.75s.32-.25,.5-.25c.31,0,.57,.09,.77,.28,.2,.19,.3,.5,.3,.94v1.56c0,.44-.09,.75-.28,.94-.19,.19-.43,.28-.72,.28-.26,0-.47-.06-.64-.17-.17-.11-.29-.32-.36-.62-.03-.21-.1-.37-.22-.48-.21-.22-.5-.39-.88-.52-.38-.14-.75-.2-1.12-.2-.47,0-.9,.09-1.3,.28-.39,.19-.73,.49-1.03,.91s-.45,.91-.45,1.48v.92c0,.69,.28,1.26,.84,1.72s1.34,.69,2.34,.69c.59,0,1.1-.07,1.52-.2,.24-.07,.49-.23,.77-.47,.18-.14,.31-.22,.41-.27s.2-.06,.31-.06c.22,0,.41,.09,.56,.27,.17,.17,.25,.37,.25,.61s-.11,.48-.34,.75c-.33,.4-.77,.7-1.3,.92-.7,.3-1.47,.45-2.33,.45-1,0-1.9-.2-2.7-.59-.65-.31-1.2-.81-1.66-1.48-.45-.68-.67-1.42-.67-2.22v-1.09c0-.83,.2-1.61,.59-2.34,.41-.73,.96-1.29,1.66-1.67,.71-.4,1.46-.59,2.25-.59,.48,0,.93,.08,1.34,.25s.8,.42,1.16,.75Z"/><text class="cls-36" transform="translate(2612.75 66.48)"><tspan class="cls-21" x="0" y="0">Locatio</tspan><tspan x="46.21" y="0">n</tspan></text><line class="cls-8" x1="2584.75" y1="76.75" x2="2668.75" y2="76.75"/><line class="cls-8" x1="2584.75" y1="84.75" x2="2668.75" y2="84.75"/></g><g id="elem_ch.aplu.jcardgame.Actor"><rect id="ch.aplu.jcardgame.Actor" class="cls-12" x="2368.25" y="44.75" width="65" height="48" rx="2.5" ry="2.5"/><circle class="cls-11" cx="2383.25" cy="60.75" r="11"/><path d="M2385.25,57.25c.14-.33,.28-.58,.44-.75s.32-.25,.5-.25c.31,0,.57,.09,.77,.28,.2,.19,.3,.5,.3,.94v1.56c0,.44-.09,.75-.28,.94-.19,.19-.43,.28-.72,.28-.26,0-.47-.06-.64-.17-.17-.11-.29-.32-.36-.62-.03-.21-.1-.37-.22-.48-.21-.22-.5-.39-.88-.52-.38-.14-.75-.2-1.12-.2-.47,0-.9,.09-1.3,.28-.39,.19-.73,.49-1.03,.91s-.45,.91-.45,1.48v.92c0,.69,.28,1.26,.84,1.72s1.34,.69,2.34,.69c.59,0,1.1-.07,1.52-.2,.24-.07,.49-.23,.77-.47,.18-.14,.31-.22,.41-.27s.2-.06,.31-.06c.22,0,.41,.09,.56,.27,.17,.17,.25,.37,.25,.61s-.11,.48-.34,.75c-.33,.4-.77,.7-1.3,.92-.7,.3-1.47,.45-2.33,.45-1,0-1.9-.2-2.7-.59-.65-.31-1.2-.81-1.66-1.48-.45-.68-.67-1.42-.67-2.22v-1.09c0-.83,.2-1.61,.59-2.34,.41-.73,.96-1.29,1.66-1.67,.71-.4,1.46-.59,2.25-.59,.48,0,.93,.08,1.34,.25s.8,.42,1.16,.75Z"/><text class="cls-36" transform="translate(2397.23 66.48)"><tspan class="cls-131" x="0" y="0">Acto</tspan><tspan x="28.34" y="0">r</tspan></text><line class="cls-8" x1="2369.25" y1="76.75" x2="2432.25" y2="76.75"/><line class="cls-8" x1="2369.25" y1="84.75" x2="2432.25" y2="84.75"/></g><g id="elem_ch.aplu.jcardgame.CardGame"><rect id="ch.aplu.jcardgame.CardGame" class="cls-12" x="2117.25" y="44.75" width="101" height="48" rx="2.5" ry="2.5"/><circle class="cls-11" cx="2132.25" cy="60.75" r="11"/><path d="M2134.25,57.25c.14-.33,.28-.58,.44-.75s.32-.25,.5-.25c.31,0,.57,.09,.77,.28,.2,.19,.3,.5,.3,.94v1.56c0,.44-.09,.75-.28,.94-.19,.19-.43,.28-.72,.28-.26,0-.47-.06-.64-.17-.17-.11-.29-.32-.36-.62-.03-.21-.1-.37-.22-.48-.21-.22-.5-.39-.88-.52-.38-.14-.75-.2-1.12-.2-.47,0-.9,.09-1.3,.28-.39,.19-.73,.49-1.03,.91s-.45,.91-.45,1.48v.92c0,.69,.28,1.26,.84,1.72s1.34,.69,2.34,.69c.59,0,1.1-.07,1.52-.2,.24-.07,.49-.23,.77-.47,.18-.14,.31-.22,.41-.27s.2-.06,.31-.06c.22,0,.41,.09,.56,.27,.17,.17,.25,.37,.25,.61s-.11,.48-.34,.75c-.33,.4-.77,.7-1.3,.92-.7,.3-1.47,.45-2.33,.45-1,0-1.9-.2-2.7-.59-.65-.31-1.2-.81-1.66-1.48-.45-.68-.67-1.42-.67-2.22v-1.09c0-.83,.2-1.61,.59-2.34,.41-.73,.96-1.29,1.66-1.67,.71-.4,1.46-.59,2.25-.59,.48,0,.93,.08,1.34,.25s.8,.42,1.16,.75Z"/><text class="cls-36" transform="translate(2146.25 66.48)"><tspan class="cls-121" x="0" y="0">CardGam</tspan><tspan x="61.21" y="0">e</tspan></text><line class="cls-8" x1="2118.25" y1="76.75" x2="2217.25" y2="76.75"/><line class="cls-8" x1="2118.25" y1="84.75" x2="2217.25" y2="84.75"/></g><g id="elem_java.lang.Exception"><rect id="java.lang.Exception" class="cls-12" x="2348.25" y="2705.75" width="93" height="48" rx="2.5" ry="2.5"/><circle class="cls-11" cx="2363.25" cy="2721.75" r="11"/><path d="M2365.25,2718.25c.14-.33,.28-.58,.44-.75s.32-.25,.5-.25c.31,0,.57,.09,.77,.28s.3,.5,.3,.94v1.56c0,.44-.09,.75-.28,.94s-.43,.28-.72,.28c-.26,0-.47-.06-.64-.17s-.29-.32-.36-.62c-.03-.21-.1-.37-.22-.48-.21-.22-.5-.39-.88-.52-.38-.14-.75-.2-1.12-.2-.47,0-.9,.09-1.3,.28-.39,.19-.73,.49-1.03,.91s-.45,.91-.45,1.48v.92c0,.69,.28,1.26,.84,1.72s1.34,.69,2.34,.69c.59,0,1.1-.07,1.52-.2,.24-.07,.49-.23,.77-.47,.18-.14,.31-.22,.41-.27s.2-.06,.31-.06c.22,0,.41,.09,.56,.27,.17,.17,.25,.37,.25,.61s-.11,.48-.34,.75c-.33,.4-.77,.7-1.3,.92-.7,.3-1.47,.45-2.33,.45-1,0-1.9-.2-2.7-.59-.65-.31-1.2-.81-1.66-1.48-.45-.68-.67-1.42-.67-2.22v-1.09c0-.83,.2-1.61,.59-2.34,.41-.73,.96-1.29,1.66-1.67,.71-.4,1.46-.59,2.25-.59,.48,0,.93,.08,1.34,.25s.8,.42,1.16,.75Z"/><text class="cls-36" transform="translate(2377.25 2727.48)"><tspan x="0" y="0">Exception</tspan></text><line class="cls-8" x1="2349.25" y1="2737.75" x2="2440.25" y2="2737.75"/><line class="cls-8" x1="2349.25" y1="2745.75" x2="2440.25" y2="2745.75"/></g><g id="link_ch.aplu.jcardgame_thrones.game"><path class="cls-10" d="M91,68.75V365.34"/><path class="cls-10" d="M1958.52,68.75H91"/><polygon class="cls-15" points="1958.52 68.75 1949.52 64.75 1953.52 68.75 1949.52 72.75 1958.52 68.75"/><text class="cls-37" transform="translate(542 58.01)"><tspan x="0" y="0">dependent</tspan><tspan class="cls-154" x="61.45" y="0"> </tspan><tspan x="66.7" y="0">on</tspan><tspan class="cls-163" x="81.16" y="0"> </tspan><tspan x="86.41" y="0">&gt;</tspan></text></g><g id="link_ch.aplu.jcardgame.CardGame_thrones.game.GameOfThrones"><path id="ch.aplu.jcardgame.CardGame-backto-thrones.game.GameOfThrones" class="cls-7" d="M2097.24,81.75H712.75V830.6"/><polygon class="cls-7" points="2097.24 74.75 2117.24 81.75 2097.24 88.75 2097.24 74.75"/></g><g id="link_thrones.game.GameOfThrones_thrones.game.Table"><path id="thrones.game.GameOfThrones-backto-thrones.game.Table" class="cls-7" d="M572.75,1209.06v303.64"/><polygon class="cls-15" points="572.75 1196.06 568.75 1202.06 572.75 1208.06 576.75 1202.06 572.75 1196.06"/><polygon class="cls-25" points="541.75 1357.06 544.69 1348.01 538.81 1348.01 541.75 1357.06"/><text class="cls-37" transform="translate(550.75 1357.38)"><tspan class="cls-105" x="0" y="0">ha</tspan><tspan x="14.5" y="0">s</tspan></text><text class="cls-37" transform="translate(553.14 1217.02)"><tspan x="0" y="0">1</tspan></text><text class="cls-37" transform="translate(555.81 1501.71)"><tspan x="0" y="0">1</tspan></text></g><g id="link_thrones.game.PropertiesLoader_thrones.game.GameOfThrones"><path id="thrones.game.PropertiesLoader-backto-thrones.game.GameOfThrones" class="cls-10" d="M578.75,650.87v179.46"/><polygon class="cls-15" points="578.75 645.87 574.75 654.87 578.75 650.87 582.75 654.87 578.75 645.87"/><polygon class="cls-25" points="540.75 726.78 537.81 735.82 543.69 735.82 540.75 726.78"/><text class="cls-37" transform="translate(549.75 737.09)"><tspan class="cls-164" x="0" y="0">use</tspan><tspan x="21.5" y="0">s</tspan></text><text class="cls-37" transform="translate(571.13 666.76)"><tspan x="0" y="0">1</tspan></text><text class="cls-37" transform="translate(571.6 819.78)"><tspan x="0" y="0">1</tspan></text></g><g id="link_thrones.game.GameOfThrones_thrones.game.PlayerType"><path id="thrones.game.GameOfThrones-to-thrones.game.PlayerType" class="cls-7" d="M719.25,1013.75h145.31"/><polygon class="cls-15" points="869.56 1013.75 860.56 1009.75 864.56 1013.75 860.56 1017.75 869.56 1013.75"/><polygon class="cls-25" points="765.91 1004.93 756.86 1001.99 756.86 1007.86 765.91 1004.93"/><text class="cls-37" transform="translate(769.91 1010.25)"><tspan class="cls-105" x="0" y="0">ha</tspan><tspan x="14.5" y="0">s</tspan></text><text class="cls-37" transform="translate(727.12 1010.85)"><tspan x="0" y="0">1</tspan></text><text class="cls-37" transform="translate(841.74 1010.33)"><tspan class="cls-168" x="0" y="0">1..</tspan><tspan x="14.94" y="0">*</tspan></text></g><g id="link_thrones.game.PlayerFactory_thrones.game.Table"><path id="thrones.game.PlayerFactory-backto-thrones.game.Table" class="cls-7" d="M1151.75,1077.41v449.34h-455.15"/><polygon class="cls-15" points="1151.75 1072.41 1147.75 1081.41 1151.75 1077.41 1155.75 1081.41 1151.75 1072.41"/><polygon class="cls-25" points="1114.41 1514.41 1105.91 1518.68 1110.04 1522.86 1114.41 1514.41"/><text class="cls-37" transform="translate(1119.85 1523.25)"><tspan class="cls-22" x="0" y="0">ask</tspan><tspan x="21.5" y="0">s</tspan></text><text class="cls-37" transform="translate(1121.17 1094.08)"><tspan x="0" y="0">1</tspan></text><text class="cls-37" transform="translate(792.36 1517.85)"><tspan x="0" y="0">1</tspan></text></g><g id="link_thrones.game.TablePile_thrones.game.Table"><path id="thrones.game.TablePile-backto-thrones.game.Table" class="cls-7" d="M292.99,1660.75h155.99"/><polygon class="cls-15" points="287.99 1660.75 296.99 1664.75 292.99 1660.75 296.99 1656.75 287.99 1660.75"/><polygon class="cls-25" points="334.99 1651.93 344.04 1654.86 344.04 1648.99 334.99 1651.93"/><text class="cls-37" transform="translate(348.99 1657.25)"><tspan class="cls-136" x="0" y="0">ha</tspan><tspan x="14.5" y="0">s</tspan></text><text class="cls-37" transform="translate(295.84 1657.8)"><tspan x="0" y="0">1</tspan></text><text class="cls-37" transform="translate(434.22 1657.81)"><tspan x="0" y="0">1</tspan></text></g><g id="link_thrones.game.Table_thrones.game.ScoreHandler"><path id="thrones.game.Table-to-thrones.game.ScoreHandler" class="cls-7" d="M696.32,1660.75h144.72"/><polygon class="cls-15" points="846.04 1660.75 837.04 1656.75 841.04 1660.75 837.04 1664.75 846.04 1660.75"/><polygon class="cls-25" points="735.68 1651.93 726.63 1648.99 726.63 1654.86 735.68 1651.93"/><text class="cls-37" transform="translate(739.68 1657.25)"><tspan class="cls-164" x="0" y="0">use</tspan><tspan x="21.5" y="0">s</tspan></text><text class="cls-37" transform="translate(704.06 1657.81)"><tspan x="0" y="0">1</tspan></text><text class="cls-37" transform="translate(831.16 1657.65)"><tspan x="0" y="0">1</tspan></text></g><g id="link_thrones.game.Table_thrones.game.RuleChecker"><path id="thrones.game.Table-to-thrones.game.RuleChecker" class="cls-7" d="M600.5,1807.82v329.23"/><polygon class="cls-15" points="600.5 2142.05 604.5 2133.05 600.5 2137.05 596.5 2133.05 600.5 2142.05"/><polygon class="cls-25" points="562.5 1968.61 565.44 1959.56 559.56 1959.56 562.5 1968.61"/><text class="cls-37" transform="translate(571.5 1968.92)"><tspan class="cls-22" x="0" y="0">ask</tspan><tspan x="21.5" y="0">s</tspan></text><text class="cls-37" transform="translate(582.38 1828.87)"><tspan x="0" y="0">1</tspan></text><text class="cls-37" transform="translate(580.13 2131.32)"><tspan x="0" y="0">1</tspan></text></g><g id="link_thrones.game.PlayerFactory_thrones.game.Player"><path id="thrones.game.PlayerFactory-to-thrones.game.Player" class="cls-7" d="M1550.75,1072.38v400.28"/><polygon class="cls-15" points="1550.75 1477.66 1554.75 1468.66 1550.75 1472.66 1546.75 1468.66 1550.75 1477.66"/><polygon class="cls-25" points="1497.75 1268.7 1500.69 1259.65 1494.81 1259.65 1497.75 1268.7"/><text class="cls-37" transform="translate(1506.75 1269.01)"><tspan class="cls-62" x="0" y="0">create</tspan><tspan x="36.5" y="0">s</tspan></text><text class="cls-37" transform="translate(1567.51 1093.63)"><tspan x="0" y="0">1</tspan></text><text class="cls-37" transform="translate(1511.62 1467.12)"><tspan class="cls-168" x="0" y="0">0..</tspan><tspan x="14.94" y="0">*</tspan></text></g><g id="link_thrones.game.PlayerFactory_thrones.game.Dealer"><path id="thrones.game.PlayerFactory-to-thrones.game.Dealer" class="cls-7" d="M1285.75,1072.38v541.1"/><polygon class="cls-15" points="1285.75 1618.48 1289.75 1609.48 1285.75 1613.48 1281.75 1609.48 1285.75 1618.48"/><polygon class="cls-25" points="1247.75 1339.11 1250.69 1330.06 1244.81 1330.06 1247.75 1339.11"/><text class="cls-37" transform="translate(1256.75 1339.42)"><tspan class="cls-164" x="0" y="0">use</tspan><tspan x="21.5" y="0">s</tspan></text><text class="cls-37" transform="translate(1271.5 1094.05)"><tspan x="0" y="0">1</tspan></text><text class="cls-37" transform="translate(1260.85 1607.74)"><tspan x="0" y="0">1</tspan></text></g><g id="link_thrones.game.PlayerType_thrones.game.PlayerFactory"><path id="thrones.game.PlayerType-backto-thrones.game.PlayerFactory" class="cls-10" d="M979.09,1013.75h144.99"/><polygon class="cls-15" points="974.09 1013.75 983.09 1017.75 979.09 1013.75 983.09 1009.75 974.09 1013.75"/><polygon class="cls-25" points="1008.59 1004.93 1017.64 1007.86 1017.64 1001.99 1008.59 1004.93"/><text class="cls-37" transform="translate(1022.59 1010.25)"><tspan class="cls-164" x="0" y="0">use</tspan><tspan x="21.5" y="0">s</tspan></text></g><g id="link_thrones.game.ScoreCalculator_thrones.game.TablePile"><path id="thrones.game.ScoreCalculator-backto-thrones.game.TablePile" class="cls-7" d="M162.75,1121.48v224.01"/><polygon class="cls-15" points="162.75 1116.48 158.75 1125.48 162.75 1121.48 166.75 1125.48 162.75 1116.48"/><polygon class="cls-25" points="124.75 1219.67 121.81 1228.71 127.69 1228.71 124.75 1219.67"/><text class="cls-37" transform="translate(133.75 1229.99)"><tspan class="cls-149" x="0" y="0">use</tspan><tspan x="21.5" y="0">s</tspan></text><text class="cls-37" transform="translate(155.93 1138.14)"><tspan x="0" y="0">1</tspan></text><text class="cls-37" transform="translate(155.66 1334.42)"><tspan x="0" y="0">1</tspan></text></g><g id="link_thrones.game.RuleChecker_thrones.game.BrokeRuleException"><path id="thrones.game.RuleChecker-to-thrones.game.BrokeRuleException" class="cls-10" d="M774,2225.34v215.06"/><polygon class="cls-15" points="774 2445.4 778 2436.4 774 2440.4 770 2436.4 774 2445.4"/><polygon class="cls-25" points="726 2329.05 728.94 2320 723.06 2320 726 2329.05"/><text class="cls-37" transform="translate(735 2329.36)"><tspan x="0" y="0">throws</tspan></text></g><g id="link_thrones.game.BrokeRuleException_java.lang.Exception"><path id="thrones.game.BrokeRuleException-to-java.lang.Exception" class="cls-7" d="M837.5,2494.21v235.54h1490.64"/><polygon class="cls-7" points="2328.14 2722.75 2348.14 2729.75 2328.14 2736.75 2328.14 2722.75"/></g><g id="link_thrones.game.RuleChecker_thrones.game.Rule"><path id="thrones.game.RuleChecker-to-thrones.game.Rule" class="cls-7" d="M525.75,2225.34v206.24"/><polygon class="cls-15" points="525.75 2436.58 529.75 2427.58 525.75 2431.58 521.75 2427.58 525.75 2436.58"/><polygon class="cls-25" points="473.75 2324.64 476.69 2315.59 470.81 2315.59 473.75 2324.64"/><text class="cls-37" transform="translate(482.75 2324.96)"><tspan class="cls-66" x="0" y="0">check</tspan><tspan x="35.5" y="0">s</tspan></text><text class="cls-37" transform="translate(493 2247.06)"><tspan x="0" y="0">1</tspan></text><text class="cls-37" transform="translate(503.28 2425.66)"><tspan class="cls-168" x="0" y="0">0..</tspan><tspan x="14.94" y="0">*</tspan></text></g><g id="link_thrones.game.Player_thrones.game.RuleChecker"><path id="thrones.game.Player-to-thrones.game.RuleChecker" class="cls-10" d="M1542.2,1819.75H782.75v317.24"/><polygon class="cls-15" points="782.75 2141.99 786.75 2132.99 782.75 2136.99 778.75 2132.99 782.75 2141.99"/><polygon class="cls-25" points="961.24 1812.85 970.72 1812.08 968.45 1806.65 961.24 1812.85"/><text class="cls-37" transform="translate(974.85 1816.25)"><tspan class="cls-22" x="0" y="0">ask</tspan><tspan x="21.5" y="0">s</tspan></text></g><g id="link_thrones.game_thrones.game.GoTCards"><path id="thrones.game-to-thrones.game.GoTCards" class="cls-10" d="M1591.75,389.34c0,5.45,0,5.41,0,5.41v105.13"/><polygon class="cls-15" points="1591.75 499.88 1595.75 490.88 1591.75 494.88 1587.75 490.88 1591.75 499.88"/><text class="cls-37" transform="translate(1562.75 419)"><tspan class="cls-164" x="0" y="0">use</tspan><tspan x="21.5" y="0">s</tspan></text></g><g id="link_thrones.game.Player_thrones.game.Human"><path id="thrones.game.Player-backto-thrones.game.Human" class="cls-7" d="M1522.18,1831.75h-109.93v301.19"/><polygon class="cls-7" points="1522.18 1824.75 1542.18 1831.75 1522.18 1838.75 1522.18 1824.75"/></g><g id="link_thrones.game.Player_thrones.game.Ai"><path id="thrones.game.Player-backto-thrones.game.Ai" class="cls-7" d="M1701.75,1862.98v261.57"/><polygon class="cls-7" points="1694.75 1862.98 1701.75 1842.98 1708.75 1862.98 1694.75 1862.98"/></g><g id="link_thrones.game.Ai_thrones.game.SimpleAi"><path id="thrones.game.Ai-backto-thrones.game.SimpleAi" class="cls-7" d="M1694.5,2263.01v165.14"/><polygon class="cls-7" points="1687.5 2263.01 1694.5 2243.01 1701.5 2263.01 1687.5 2263.01"/></g><g id="link_thrones.game.Ai_thrones.game.SmartAi"><path id="thrones.game.Ai-backto-thrones.game.SmartAi" class="cls-7" d="M1562.74,2238.75h-337.49v153.76"/><polygon class="cls-7" points="1562.74 2231.75 1582.74 2238.75 1562.74 2245.75 1562.74 2231.75"/></g><g id="link_thrones.game.Rule_thrones.game.DiamondOnHeartRule"><path id="thrones.game.Rule-backto-thrones.game.DiamondOnHeartRule" class="cls-10" d="M307.75,2522.94v173.4"/><polygon class="cls-7" points="300.75 2522.94 307.75 2502.94 314.75 2522.94 300.75 2522.94"/></g><g id="link_thrones.game.Ai_thrones.game.SmartAi-2"><path id="thrones.game.Ai-backto-thrones.game.SmartAi-2" class="cls-7" d="M2178.24,2436.75c0-67.15,0-199.81,0-199.81h-337.49"/><polygon class="cls-7" points="1840.75 2243.94 1820.75 2236.94 1840.75 2229.94 1840.75 2243.94"/></g><g id="link_thrones.game.Rule_thrones.game.DiamondOnHeartRule-2"><path id="thrones.game.Rule-backto-thrones.game.DiamondOnHeartRule-2" class="cls-10" d="M525.75,2522.53v173.4"/><polygon class="cls-7" points="518.75 2522.53 525.75 2502.53 532.75 2522.53 518.75 2522.53"/></g></svg>